<svg xmlns="http://www.w3.org/2000/svg" version="1.0" preserveAspectRatio="xMidYMid meet" viewBox="34.9 983.13 2329.42 432.98">

<g transform="translate(0.000000,2400.000000) scale(0.100000,-0.100000)" fill="#000000" stroke="none">
<path d="M354 14156 c-3 -8 -4 -31 -2 -52 l3 -39 508 -3 507 -2 0 -125 0 -125 1620 0 c891 0 1620 2 1620 4 0 17 -295 174 -408 217 l-62 24 1067 5 1068 5 0 50 0 50 -2958 3 c-2524 2 -2958 0 -2963 -12z"/>
<path d="M6583 13972 c-106 -38 -168 -104 -199 -211 -56 -190 104 -382 306 -368 153 10 267 123 277 277 15 208 -192 371 -384 302z m192 -56 c55 -25 110 -81 132 -134 8 -19 14 -60 14 -91 1 -146 -103 -251 -248 -251 -151 0 -264 121 -250 270 15 175 195 280 352 206z"/>
<path d="M6540 13680 l0 -160 25 0 c24 0 25 2 25 70 l0 70 33 0 c38 0 60 -20 102 -92 22 -40 32 -48 57 -48 20 0 27 4 22 13 -28 47 -70 105 -88 119 -17 14 -18 18 -5 18 25 0 66 37 73 66 9 36 -9 79 -40 93 -14 6 -65 11 -114 11 l-90 0 0 -160z m185 96 c30 -45 -6 -76 -91 -76 l-44 0 0 50 0 50 60 0 c52 0 62 -3 75 -24z"/>
<path d="M9230 13159 l0 -832 -83 80 c-190 182 -365 262 -629 285 -241 22 -475 -19 -673 -116 -130 -64 -214 -125 -312 -229 -242 -256 -383 -650 -383 -1073 0 -453 142 -839 405 -1100 127 -126 276 -218 443 -274 238 -79 546 -82 768 -6 166 56 283 130 417 263 l87 87 0 -152 0 -152 460 0 460 0 0 2025 0 2025 -480 0 -480 0 0 -831z m-350 -1271 c145 -34 283 -146 350 -282 59 -120 74 -189 74 -336 0 -145 -17 -229 -69 -335 -89 -185 -254 -291 -472 -302 -187 -10 -328 39 -440 153 -115 118 -173 279 -173 487 0 396 250 655 610 630 41 -2 95 -9 120 -15z"/>
<path d="M352 13743 l3 -58 505 0 505 0 3 58 3 57 -511 0 -511 0 3 -57z"/>
<path d="M4703 13750 c36 -27 68 -54 72 -60 4 -7 -542 -10 -1699 -10 l-1706 0 0 -130 0 -130 1830 0 c1113 0 1830 4 1830 9 0 5 -53 64 -119 130 l-119 121 742 2 741 3 3 58 3 57 -822 0 -822 0 66 -50z"/>
<path d="M357 13413 c-4 -3 -7 -35 -7 -70 l0 -63 510 0 511 0 -3 68 -3 67 -501 3 c-275 1 -504 -1 -507 -5z"/>
<path d="M5052 13413 c1 -5 23 -36 48 -70 l45 -62 568 0 568 -1 -3 68 -3 67 -613 3 c-338 1 -612 -1 -610 -5z"/>
<path d="M1370 13155 l0 -115 489 0 490 0 3 115 3 115 -492 0 -493 0 0 -115z"/>
<path d="M3470 13263 c190 -20 370 -81 535 -182 l60 -36 -855 -5 -855 -5 -3 -77 -3 -78 948 0 948 0 -55 53 c-30 29 -71 65 -90 80 l-35 27 608 0 c334 0 607 2 607 5 0 12 -44 93 -86 158 l-44 67 -857 -2 c-472 0 -842 -3 -823 -5z"/>
<path d="M357 13033 c-4 -3 -7 -39 -7 -80 l0 -73 510 0 511 0 -3 78 -3 77 -501 3 c-275 1 -504 -1 -507 -5z"/>
<path d="M5300 13033 c0 -5 15 -41 32 -80 l33 -73 458 0 458 0 -3 78 -3 77 -487 3 c-269 1 -488 -1 -488 -5z"/>
<path d="M1370 12755 l0 -115 -507 -2 -508 -3 -3 -87 -3 -88 511 0 510 0 0 -110 0 -110 -510 0 -511 0 3 -97 3 -98 505 0 505 0 3 98 3 97 489 0 489 0 3 -97 3 -98 1123 -3 1122 -2 0 -78 c0 -42 -3 -87 -6 -99 l-6 -23 -1119 0 -1119 0 0 100 0 100 -490 0 -490 0 0 -100 0 -100 -510 0 -510 0 0 -105 0 -105 510 0 510 0 0 105 0 105 490 0 490 0 0 -105 0 -105 1099 0 1098 0 17 83 c9 45 19 92 22 105 l4 22 465 0 c279 0 465 -4 465 -9 0 -19 -21 -166 -26 -183 -5 -17 18 -18 390 -18 l396 0 0 105 0 105 -380 0 -380 0 0 48 c0 26 3 71 6 99 l7 53 371 2 371 3 3 98 3 97 -380 0 -380 0 -5 33 c-3 17 -11 67 -17 110 l-12 77 -484 0 c-407 0 -484 -2 -480 -14 8 -19 44 -146 51 -178 l6 -28 469 0 468 0 7 -37 c3 -21 6 -66 6 -100 l0 -63 -464 0 -464 0 -6 38 c-3 20 -8 65 -12 100 l-6 62 -1114 0 -1114 0 0 110 0 110 1080 0 c594 0 1080 3 1080 6 0 3 -18 44 -39 90 l-40 84 -1038 -2 -1038 -3 -3 -87 -3 -88 -489 0 -490 0 0 90 0 90 490 0 490 0 0 115 0 115 -490 0 -490 0 0 -115z"/>
<path d="M4270 12862 c0 -5 12 -19 26 -33 14 -13 51 -61 81 -106 l57 -83 503 0 c277 0 503 3 503 8 0 4 -16 55 -36 115 l-37 107 -549 0 c-301 0 -548 -4 -548 -8z"/>
<path d="M11713 12690 c-663 -70 -1108 -449 -1244 -1059 -32 -148 -44 -341 -31 -498 15 -166 32 -255 78 -392 161 -485 564 -803 1124 -887 137 -20 438 -20 582 0 417 59 744 245 946 539 48 70 150 269 167 325 l6 22 -461 -2 -462 -3 -19 -50 c-60 -156 -217 -254 -435 -271 -177 -13 -338 41 -450 151 -107 106 -169 253 -176 417 l-3 73 1019 3 1019 2 -7 138 c-28 566 -215 981 -556 1234 -176 130 -390 214 -635 248 -110 15 -362 21 -462 10z m326 -585 c186 -44 328 -194 382 -403 10 -41 19 -86 19 -99 l0 -23 -540 0 -540 0 0 28 c0 52 30 152 66 224 45 90 146 193 224 231 117 56 261 72 389 42z"/>
<path d="M15150 12689 c-216 -28 -419 -129 -587 -292 l-83 -81 0 142 0 142 -465 0 -465 0 0 -1330 0 -1330 465 0 465 0 0 755 c0 843 0 847 67 983 97 198 331 286 499 187 48 -28 97 -96 122 -170 15 -45 17 -127 20 -902 l3 -853 464 0 464 0 4 783 c3 714 5 787 21 841 57 190 172 306 334 336 166 30 293 -55 336 -223 14 -59 16 -159 16 -902 l0 -835 465 0 466 0 -3 1008 -3 1007 -28 100 c-91 331 -283 533 -586 612 -82 22 -118 26 -256 26 -164 1 -225 -7 -345 -45 -163 -52 -319 -164 -441 -316 l-34 -43 -43 65 c-164 249 -509 382 -872 335z"/>
<path d="M19272 12689 c-397 -35 -730 -173 -966 -399 -118 -113 -195 -218 -266 -365 -173 -354 -195 -793 -60 -1181 131 -374 426 -663 821 -802 105 -37 282 -77 408 -92 136 -16 445 -13 582 5 692 91 1134 480 1262 1110 31 157 31 463 -1 611 -31 142 -65 244 -122 360 -200 405 -583 660 -1110 739 -131 19 -412 27 -548 14z m363 -701 c93 -20 175 -66 250 -142 81 -82 123 -154 161 -281 23 -78 27 -112 31 -260 4 -144 2 -185 -16 -270 -65 -319 -276 -505 -572 -505 -388 0 -615 298 -596 785 7 166 29 263 88 383 118 241 369 352 654 290z"/>
<path d="M22315 12694 c-213 -22 -356 -54 -488 -110 -287 -120 -477 -347 -531 -633 -20 -106 -20 -280 0 -379 40 -199 167 -361 359 -459 152 -78 331 -130 575 -168 180 -28 258 -53 308 -99 81 -73 70 -209 -21 -265 -68 -42 -142 -54 -282 -48 -211 10 -395 60 -624 172 -74 36 -136 64 -138 61 -2 -2 -69 -150 -148 -328 -129 -293 -141 -324 -126 -336 35 -29 224 -113 337 -151 237 -78 469 -111 794 -112 118 0 256 5 305 11 477 57 786 241 929 552 114 246 104 572 -24 788 -85 144 -252 268 -446 333 -108 36 -188 51 -419 82 -215 29 -327 69 -365 131 -28 44 -27 150 0 203 25 49 57 74 128 102 47 18 77 22 172 22 181 -1 370 -53 569 -159 46 -24 87 -44 91 -44 7 0 330 594 330 605 0 7 -211 85 -308 114 -133 40 -310 76 -458 96 -116 15 -441 27 -519 19z"/>
<path d="M5450 12635 c0 -3 10 -44 21 -90 l21 -85 394 0 394 0 0 90 0 90 -415 0 c-228 0 -415 -2 -415 -5z"/>
<path d="M1370 11540 l0 -80 490 0 490 0 0 80 0 80 -490 0 -490 0 0 -80z"/>
<path d="M4523 11558 c-12 -35 -25 -71 -28 -80 -7 -17 20 -18 468 -18 262 0 478 -4 481 -9 3 -4 -10 -54 -29 -110 l-34 -101 450 0 449 0 0 105 0 105 -415 0 c-228 0 -415 3 -415 8 1 4 9 42 19 85 l18 77 -471 0 -471 0 -22 -62z"/>
<path d="M350 11345 l0 -105 510 0 510 0 0 105 0 105 -510 0 -510 0 0 -105z"/>
<path d="M2350 11345 l0 -105 1003 0 1002 0 15 23 c31 48 100 172 100 179 0 5 -477 8 -1060 8 l-1060 0 0 -105z"/>
<path d="M1370 11160 l0 -70 -510 0 -510 0 0 -105 0 -105 510 0 510 0 0 105 0 105 490 0 490 0 0 -110 0 -110 -490 0 -490 0 0 -80 0 -80 1853 0 1854 0 56 78 56 77 -622 5 -622 5 85 57 c47 31 110 80 140 107 l55 50 -937 1 -938 0 0 70 0 70 -490 0 -490 0 0 -70z"/>
<path d="M4295 11167 c-27 -34 -51 -65 -53 -69 -2 -4 238 -8 533 -8 l536 0 29 66 c17 36 30 68 30 70 0 2 -231 4 -512 3 l-513 0 -50 -62z"/>
<path d="M5288 11038 c-15 -29 -41 -77 -58 -105 l-30 -53 540 0 540 0 0 105 0 105 -483 0 -483 0 -26 -52z"/>
<path d="M350 10575 l0 -125 510 0 510 0 0 -75 0 -75 1643 -2 1642 -3 -95 -63 c-260 -172 -602 -289 -914 -311 -64 -5 474 -9 1262 -10 l1372 -1 0 190 0 190 -810 0 c-445 0 -810 3 -810 8 0 4 15 17 33 29 17 13 57 45 87 72 l55 50 -1732 1 -1733 0 0 125 0 125 -510 0 -510 0 0 -125z"/>
<path d="M5029 10648 c-24 -29 -74 -86 -113 -125 l-69 -73 716 0 717 0 0 125 0 125 -603 0 -604 0 -44 -52z"/>
<path d="M350 10100 l0 -190 510 0 510 0 0 190 0 190 -510 0 -510 0 0 -190z"/>
</g>
</svg>