<?xml version="1.0" standalone="no"?>
<!DOCTYPE svg PUBLIC "-//W3C//DTD SVG 20010904//EN"
 "http://www.w3.org/TR/2001/REC-SVG-20010904/DTD/svg10.dtd">
<svg version="1.0" xmlns="http://www.w3.org/2000/svg"
 width="840.000000pt" height="859.000000pt" viewBox="0 0 840.000000 859.000000"
 preserveAspectRatio="xMidYMid meet">

<g transform="translate(0.000000,859.000000) scale(0.100000,-0.100000)"
fill="#000000" stroke="none">
<path d="M4082 8131 c-12 -10 -22 -23 -22 -30 0 -6 -4 -11 -10 -11 -5 0 -10
-7 -10 -15 0 -8 5 -15 10 -15 6 0 10 7 10 15 0 8 5 15 10 15 6 0 10 6 10 14 0
8 9 18 20 21 11 3 20 11 20 16 0 14 -15 11 -38 -10z"/>
<path d="M4125 8120 c-3 -5 -1 -10 4 -10 6 0 11 5 11 10 0 6 -2 10 -4 10 -3 0
-8 -4 -11 -10z"/>
<path d="M4149 8048 c-3 -63 0 -231 5 -235 3 -4 6 51 6 120 0 70 -2 127 -5
127 -3 0 -5 -6 -6 -12z"/>
<path d="M4020 8034 c0 -8 5 -12 10 -9 6 4 8 11 5 16 -9 14 -15 11 -15 -7z"/>
<path d="M4001 7994 c0 -11 3 -14 6 -6 3 7 2 16 -1 19 -3 4 -6 -2 -5 -13z"/>
<path d="M3962 7920 c0 -14 2 -19 5 -12 2 6 2 18 0 25 -3 6 -5 1 -5 -13z"/>
<path d="M3941 7884 c0 -11 3 -14 6 -6 3 7 2 16 -1 19 -3 4 -6 -2 -5 -13z"/>
<path d="M3915 7850 c-3 -5 -1 -10 4 -10 6 0 11 5 11 10 0 6 -2 10 -4 10 -3 0
-8 -4 -11 -10z"/>
<path d="M4060 7835 c0 -14 -4 -25 -10 -25 -5 0 -10 -13 -10 -30 0 -16 -4 -30
-10 -30 -5 0 -10 -9 -10 -20 0 -11 -4 -20 -10 -20 -5 0 -10 -9 -10 -19 0 -11
-4 -23 -10 -26 -5 -3 -10 -15 -10 -26 0 -10 5 -19 10 -19 6 0 10 -15 11 -32 0
-28 2 -30 9 -13 5 11 9 37 9 58 1 20 6 37 11 37 6 0 10 18 10 40 0 22 5 40 10
40 6 0 10 14 10 30 0 17 5 30 10 30 6 0 10 11 10 25 0 14 -4 25 -10 25 -5 0
-10 -11 -10 -25z"/>
<path d="M3890 7820 c0 -5 5 -10 10 -10 6 0 10 5 10 10 0 6 -4 10 -10 10 -5 0
-10 -4 -10 -10z"/>
<path d="M4583 7785 c-13 -13 -23 -31 -23 -40 0 -8 -4 -15 -10 -15 -5 0 -10
-9 -10 -19 0 -11 -5 -21 -11 -23 -6 -2 -9 -13 -6 -23 5 -19 5 -19 12 3 4 12
11 22 16 22 5 0 9 9 9 20 0 11 5 20 10 20 6 0 10 7 10 16 0 20 24 44 44 44 9
0 16 5 16 10 0 18 -35 9 -57 -15z"/>
<path d="M3858 7769 c-16 -16 -28 -35 -28 -42 0 -7 -9 -19 -20 -27 -11 -8 -20
-20 -20 -27 0 -7 -4 -13 -10 -13 -5 0 -10 -7 -10 -16 0 -12 7 -8 22 12 12 16
30 36 40 45 10 9 18 22 18 29 0 7 9 21 21 31 12 10 19 23 17 28 -1 6 -15 -3
-30 -20z"/>
<path d="M4120 7690 c0 -11 5 -20 10 -20 6 0 10 9 10 20 0 11 -4 20 -10 20 -5
0 -10 -9 -10 -20z"/>
<path d="M4653 7615 c0 -44 2 -61 4 -37 2 23 2 59 0 80 -2 20 -4 1 -4 -43z"/>
<path d="M6000 7680 c0 -5 5 -10 10 -10 6 0 10 5 10 10 0 6 -4 10 -10 10 -5 0
-10 -4 -10 -10z"/>
<path d="M6255 7680 c-3 -5 -1 -10 4 -10 6 0 11 5 11 10 0 6 -2 10 -4 10 -3 0
-8 -4 -11 -10z"/>
<path d="M6178 7653 c6 -2 18 -2 25 0 6 3 1 5 -13 5 -14 0 -19 -2 -12 -5z"/>
<path d="M4500 7624 c0 -8 5 -12 10 -9 6 3 10 10 10 16 0 5 -4 9 -10 9 -5 0
-10 -7 -10 -16z"/>
<path d="M6123 7633 c9 -2 23 -2 30 0 6 3 -1 5 -18 5 -16 0 -22 -2 -12 -5z"/>
<path d="M3961 7604 c0 -11 3 -14 6 -6 3 7 2 16 -1 19 -3 4 -6 -2 -5 -13z"/>
<path d="M6078 7613 c7 -3 16 -2 19 1 4 3 -2 6 -13 5 -11 0 -14 -3 -6 -6z"/>
<path d="M3708 7568 c-15 -16 -25 -35 -21 -41 4 -7 8 -6 11 3 3 8 16 27 30 43
14 15 22 27 16 27 -5 -1 -21 -15 -36 -32z"/>
<path d="M4100 7580 c0 -11 5 -20 10 -20 6 0 10 9 10 20 0 11 -4 20 -10 20 -5
0 -10 -9 -10 -20z"/>
<path d="M4480 7581 c0 -25 6 -27 13 -6 4 8 2 17 -3 20 -6 4 -10 -3 -10 -14z"/>
<path d="M5892 7585 c-16 -19 -3 -19 22 0 14 11 16 15 5 15 -8 -1 -20 -7 -27
-15z"/>
<path d="M6025 7587 c-29 -18 -48 -37 -42 -43 5 -6 14 0 50 32 7 6 19 13 27
17 13 5 13 5 0 6 -8 0 -24 -6 -35 -12z"/>
<path d="M3937 7565 c-4 -8 -2 -17 3 -20 6 -4 10 3 10 14 0 25 -6 27 -13 6z"/>
<path d="M4460 7534 c0 -8 5 -12 10 -9 6 4 8 11 5 16 -9 14 -15 11 -15 -7z"/>
<path d="M3900 7510 c-7 -16 -16 -30 -21 -30 -5 0 -9 -8 -9 -18 0 -10 -9 -24
-20 -32 -21 -15 -27 -40 -10 -40 6 0 10 6 10 13 0 7 9 19 20 27 11 8 20 22 20
32 0 10 5 18 10 18 6 0 10 9 10 20 0 11 5 20 10 20 6 0 10 5 10 10 0 21 -18 9
-30 -20z"/>
<path d="M3982 7510 c0 -19 2 -27 5 -17 2 9 2 25 0 35 -3 9 -5 1 -5 -18z"/>
<path d="M3632 7484 c-19 -20 -32 -38 -29 -41 6 -5 77 61 77 72 0 12 -17 1
-48 -31z"/>
<path d="M4080 7500 c0 -11 5 -20 10 -20 6 0 10 9 10 20 0 11 -4 20 -10 20 -5
0 -10 -9 -10 -20z"/>
<path d="M6090 7490 c0 -6 37 -10 90 -10 53 0 90 4 90 10 0 6 -37 10 -90 10
-53 0 -90 -4 -90 -10z"/>
<path d="M3962 7440 c0 -14 2 -19 5 -12 2 6 2 18 0 25 -3 6 -5 1 -5 -13z"/>
<path d="M4060 7440 c0 -11 5 -20 10 -20 6 0 10 9 10 20 0 11 -4 20 -10 20 -5
0 -10 -9 -10 -20z"/>
<path d="M5545 7427 c-4 -10 -5 -21 -1 -24 10 -10 18 4 13 24 -4 17 -4 17 -12
0z"/>
<path d="M4401 7414 c0 -11 3 -14 6 -6 3 7 2 16 -1 19 -3 4 -6 -2 -5 -13z"/>
<path d="M4520 7396 c0 -14 5 -26 10 -26 6 0 10 9 10 19 0 11 -4 23 -10 26 -6
4 -10 -5 -10 -19z"/>
<path d="M4632 7390 c0 -19 2 -27 5 -17 2 9 2 25 0 35 -3 9 -5 1 -5 -18z"/>
<path d="M3540 7381 c-73 -82 -100 -111 -105 -111 -8 0 -65 -59 -65 -67 0 -3
-10 -14 -22 -24 -11 -11 -19 -22 -15 -25 5 -6 137 120 137 132 0 3 17 22 38
43 53 52 77 81 66 81 -5 -1 -20 -14 -34 -29z"/>
<path d="M3942 7380 c0 -14 2 -19 5 -12 2 6 2 18 0 25 -3 6 -5 1 -5 -13z"/>
<path d="M4376 7391 c-4 -7 -5 -15 -2 -18 9 -9 19 4 14 18 -4 11 -6 11 -12 0z"/>
<path d="M4041 7374 c0 -11 3 -14 6 -6 3 7 2 16 -1 19 -3 4 -6 -2 -5 -13z"/>
<path d="M5612 7370 c0 -14 2 -19 5 -12 2 6 2 18 0 25 -3 6 -5 1 -5 -13z"/>
<path d="M3810 7370 c0 -5 5 -10 10 -10 6 0 10 5 10 10 0 6 -4 10 -10 10 -5 0
-10 -4 -10 -10z"/>
<path d="M5460 7355 c0 -8 4 -15 10 -15 5 0 7 7 4 15 -4 8 -8 15 -10 15 -2 0
-4 -7 -4 -15z"/>
<path d="M4350 7350 c0 -5 5 -10 10 -10 6 0 10 5 10 10 0 6 -4 10 -10 10 -5 0
-10 -4 -10 -10z"/>
<path d="M4490 7325 c-8 -19 -17 -35 -22 -35 -4 0 -8 -9 -8 -20 0 -11 -4 -20
-10 -20 -5 0 -10 -10 -10 -22 1 -22 1 -22 12 -3 20 34 41 52 46 37 10 -30 22
-7 22 43 0 63 -10 70 -30 20z"/>
<path d="M3783 7335 c-21 -24 -14 -40 7 -17 11 12 20 24 20 27 0 10 -15 4 -27
-10z"/>
<path d="M3922 7330 c0 -14 2 -19 5 -12 2 6 2 18 0 25 -3 6 -5 1 -5 -13z"/>
<path d="M5520 7320 c0 -16 -4 -30 -10 -30 -5 0 -10 9 -10 20 0 11 -4 20 -10
20 -15 0 -12 -58 2 -62 9 -3 8 -9 -5 -22 -9 -10 -19 -29 -22 -44 -4 -15 -11
-43 -17 -63 -13 -45 3 -223 23 -243 5 -6 9 -18 9 -27 0 -9 7 -20 16 -23 22 -9
24 -8 24 9 0 8 -4 15 -10 15 -5 0 -10 9 -10 19 0 11 -5 21 -11 23 -16 5 -17
264 -1 280 7 7 12 20 12 30 0 26 47 71 66 64 8 -3 26 -30 39 -59 22 -47 24
-61 18 -140 -5 -76 -8 -87 -24 -87 -29 0 -59 -32 -59 -62 0 -16 -4 -28 -10
-28 -5 0 -10 -7 -10 -15 0 -8 5 -15 10 -15 6 0 10 -9 10 -21 0 -24 22 -49 43
-49 20 0 64 105 71 173 7 65 -11 240 -25 245 -5 2 -9 12 -9 23 0 10 -4 19 -10
19 -5 0 -10 14 -10 30 0 17 -4 30 -10 30 -5 0 -10 -4 -10 -10 0 -5 -4 -10 -10
-10 -5 0 -10 6 -10 14 0 12 -20 26 -36 26 -2 0 -4 -13 -4 -30z m80 -360 c0
-11 -4 -20 -10 -20 -5 0 -10 9 -10 20 0 11 5 20 10 20 6 0 10 -9 10 -20z"/>
<path d="M4021 7324 c0 -11 3 -14 6 -6 3 7 2 16 -1 19 -3 4 -6 -2 -5 -13z"/>
<path d="M4323 7315 c-7 -8 -13 -19 -13 -26 0 -6 -13 -24 -30 -39 -16 -15 -30
-33 -30 -39 0 -6 -4 -11 -10 -11 -5 0 -10 -7 -10 -16 0 -12 7 -8 22 12 12 16
35 41 50 56 16 14 28 33 28 42 0 9 5 16 10 16 6 0 10 5 10 10 0 14 -13 12 -27
-5z"/>
<path d="M4607 7296 c-4 -10 -5 -21 -2 -24 9 -9 17 6 13 25 -3 17 -4 17 -11
-1z"/>
<path d="M3731 7264 c-12 -14 -20 -28 -17 -31 6 -7 46 35 46 49 0 11 -2 10
-29 -18z"/>
<path d="M3902 7270 c0 -14 2 -19 5 -12 2 6 2 18 0 25 -3 6 -5 1 -5 -13z"/>
<path d="M4002 7270 c0 -14 2 -19 5 -12 2 6 2 18 0 25 -3 6 -5 1 -5 -13z"/>
<path d="M3877 7236 c-4 -10 -5 -21 -2 -24 9 -9 17 6 13 25 -3 17 -4 17 -11
-1z"/>
<path d="M6071 7243 c-1 -15 -48 -63 -61 -63 -20 0 -103 -95 -127 -146 -9 -19
-20 -34 -25 -34 -4 0 -8 -9 -8 -19 0 -11 -4 -23 -10 -26 -5 -3 -10 -19 -10
-35 0 -16 -4 -32 -10 -35 -5 -3 -10 -31 -10 -61 0 -54 0 -54 31 -54 45 0 79
42 79 99 0 33 -15 49 -24 26 -3 -8 -10 -15 -16 -15 -16 0 -12 30 5 36 19 8 19
22 1 26 -12 2 -9 16 13 67 16 35 36 72 45 82 9 11 16 22 16 25 0 11 29 34 43
34 8 0 17 -10 20 -22 8 -28 -4 -147 -14 -154 -5 -3 -9 -18 -9 -35 0 -16 -4
-29 -10 -29 -5 0 -10 -9 -10 -20 0 -11 -4 -20 -10 -20 -5 0 -10 -5 -10 -10 0
-6 -9 -20 -20 -32 -18 -20 -28 -58 -15 -58 13 0 55 50 55 65 0 8 5 15 10 15 6
0 10 9 10 20 0 11 5 20 10 20 6 0 10 14 10 30 0 17 5 30 10 30 6 0 10 12 10
28 0 15 7 45 14 67 12 33 20 41 48 46 l33 6 -32 2 c-44 2 -47 13 -13 50 39 40
38 45 -5 21 -20 -11 -38 -20 -40 -20 -13 0 -2 35 16 51 12 10 19 25 16 36 -3
10 -5 13 -6 6z"/>
<path d="M3691 7221 c-1 -12 -14 -28 -68 -86 -13 -13 -23 -29 -23 -35 0 -5 -4
-10 -10 -10 -5 0 -10 -5 -10 -11 0 -6 -13 -24 -30 -39 -16 -15 -30 -35 -30
-44 0 -9 -4 -16 -10 -16 -5 0 -10 -4 -10 -10 0 -18 19 -10 25 10 4 12 22 36
41 55 19 19 34 39 34 45 0 5 5 10 10 10 6 0 10 6 10 13 0 7 9 19 20 27 11 8
20 19 20 24 0 5 9 17 21 27 12 10 19 25 16 36 -3 10 -5 12 -6 4z"/>
<path d="M4580 7210 c0 -11 5 -20 10 -20 6 0 10 9 10 20 0 11 -4 20 -10 20 -5
0 -10 -9 -10 -20z"/>
<path d="M4421 7194 c0 -11 3 -14 6 -6 3 7 2 16 -1 19 -3 4 -6 -2 -5 -13z"/>
<path d="M3850 7185 c0 -8 5 -15 10 -15 6 0 10 7 10 15 0 8 -4 15 -10 15 -5 0
-10 -7 -10 -15z"/>
<path d="M4480 7156 c0 -20 2 -36 4 -36 8 0 12 61 4 66 -4 3 -8 -11 -8 -30z"/>
<path d="M4396 7165 c-3 -8 -1 -15 4 -15 6 0 10 7 10 15 0 8 -2 15 -4 15 -2 0
-6 -7 -10 -15z"/>
<path d="M4202 7158 c-7 -7 -12 -16 -12 -21 0 -5 7 -1 16 8 9 9 14 18 12 20
-2 3 -10 -1 -16 -7z"/>
<path d="M3830 7145 c0 -8 5 -15 10 -15 6 0 10 7 10 15 0 8 -4 15 -10 15 -5 0
-10 -7 -10 -15z"/>
<path d="M4560 7145 c0 -8 5 -15 10 -15 6 0 10 7 10 15 0 8 -4 15 -10 15 -5 0
-10 -7 -10 -15z"/>
<path d="M3302 7124 c-7 -8 -12 -19 -10 -23 2 -5 11 2 21 15 19 26 10 33 -11
8z"/>
<path d="M4370 7130 c0 -5 5 -10 10 -10 6 0 10 5 10 10 0 6 -4 10 -10 10 -5 0
-10 -4 -10 -10z"/>
<path d="M3810 7105 c0 -8 5 -15 10 -15 6 0 10 7 10 15 0 8 -4 15 -10 15 -5 0
-10 -7 -10 -15z"/>
<path d="M4350 7097 c0 -7 -9 -19 -20 -27 -11 -8 -20 -21 -20 -28 0 -8 -12
-26 -27 -41 -28 -26 -53 -64 -53 -78 0 -4 8 3 18 16 9 13 32 38 50 57 17 18
32 39 32 46 0 8 9 20 20 28 21 15 27 40 10 40 -5 0 -10 -6 -10 -13z"/>
<path d="M4072 7023 c-41 -41 -71 -77 -69 -80 5 -5 157 142 157 152 0 14 -21
-3 -88 -72z"/>
<path d="M4462 7080 c0 -14 2 -19 5 -12 2 6 2 18 0 25 -3 6 -5 1 -5 -13z"/>
<path d="M4540 7090 c0 -5 5 -10 10 -10 6 0 10 5 10 10 0 6 -4 10 -10 10 -5 0
-10 -4 -10 -10z"/>
<path d="M3270 7069 c0 -5 5 -7 10 -4 6 3 10 8 10 11 0 2 -4 4 -10 4 -5 0 -10
-5 -10 -11z"/>
<path d="M3790 7060 c0 -11 -4 -20 -10 -20 -5 0 -10 -5 -10 -12 0 -6 9 -3 20
7 21 19 27 45 10 45 -5 0 -10 -9 -10 -20z"/>
<path d="M3901 7064 c0 -11 3 -14 6 -6 3 7 2 16 -1 19 -3 4 -6 -2 -5 -13z"/>
<path d="M3251 7034 c0 -11 3 -14 6 -6 3 7 2 16 -1 19 -3 4 -6 -2 -5 -13z"/>
<path d="M4520 7036 c0 -9 5 -16 10 -16 6 0 10 4 10 9 0 6 -4 13 -10 16 -5 3
-10 -1 -10 -9z"/>
<path d="M3870 7030 c0 -5 5 -10 10 -10 6 0 10 5 10 10 0 6 -4 10 -10 10 -5 0
-10 -4 -10 -10z"/>
<path d="M4442 7020 c0 -14 2 -19 5 -12 2 6 2 18 0 25 -3 6 -5 1 -5 -13z"/>
<path d="M3232 7000 c0 -14 2 -19 5 -12 2 6 2 18 0 25 -3 6 -5 1 -5 -13z"/>
<path d="M3850 6990 c0 -5 5 -10 10 -10 6 0 10 5 10 10 0 6 -4 10 -10 10 -5 0
-10 -4 -10 -10z"/>
<path d="M3212 6950 c0 -14 2 -19 5 -12 2 6 2 18 0 25 -3 6 -5 1 -5 -13z"/>
<path d="M3731 6954 c0 -11 3 -14 6 -6 3 7 2 16 -1 19 -3 4 -6 -2 -5 -13z"/>
<path d="M3480 6941 c0 -25 6 -27 13 -6 4 8 2 17 -3 20 -6 4 -10 -3 -10 -14z"/>
<path d="M3830 6950 c0 -5 5 -10 10 -10 6 0 10 5 10 10 0 6 -4 10 -10 10 -5 0
-10 -4 -10 -10z"/>
<path d="M3810 6930 c0 -5 5 -10 11 -10 5 0 7 5 4 10 -3 6 -8 10 -11 10 -2 0
-4 -4 -4 -10z"/>
<path d="M3940 6879 c-25 -27 -64 -70 -87 -94 -24 -24 -43 -49 -43 -55 0 -5
-4 -10 -10 -10 -5 0 -10 -7 -10 -15 0 -8 -4 -15 -10 -15 -5 0 -10 -5 -10 -10
0 -6 -9 -20 -20 -32 -11 -12 -20 -28 -20 -35 0 -7 -4 -13 -9 -13 -5 0 -14 -13
-21 -30 -7 -16 -16 -30 -20 -30 -5 0 -16 -20 -27 -45 -10 -25 -26 -48 -35 -51
-19 -6 -78 -58 -78 -69 0 -4 7 -2 16 6 13 10 17 10 24 -1 7 -11 15 -12 37 -4
22 8 27 15 25 36 -1 15 2 29 8 33 5 3 10 17 10 31 0 13 4 24 9 24 5 0 14 14
21 30 7 17 16 30 20 30 4 0 14 14 21 32 7 18 20 40 29 49 52 57 70 81 70 90 0
6 18 28 40 49 22 21 40 43 40 48 0 6 3 12 8 14 14 7 86 88 77 87 -6 0 -30 -22
-55 -50z"/>
<path d="M3183 6904 c-3 -8 -1 -20 6 -27 8 -8 11 -4 11 16 0 30 -7 35 -17 11z"/>
<path d="M3461 6904 c0 -11 3 -14 6 -6 3 7 2 16 -1 19 -3 4 -6 -2 -5 -13z"/>
<path d="M3436 6875 c-3 -8 -1 -15 4 -15 6 0 10 7 10 15 0 8 -2 15 -4 15 -2 0
-6 -7 -10 -15z"/>
<path d="M4441 6864 c0 -11 3 -14 6 -6 3 7 2 16 -1 19 -3 4 -6 -2 -5 -13z"/>
<path d="M3167 6863 c-11 -10 -8 -53 3 -53 6 0 10 14 10 30 0 31 -2 35 -13 23z"/>
<path d="M3410 6831 c0 -11 -6 -21 -12 -24 -7 -2 -10 -8 -6 -12 9 -10 38 19
38 39 0 9 -4 16 -10 16 -5 0 -10 -9 -10 -19z"/>
<path d="M3651 6843 c0 -7 -12 -23 -26 -37 -14 -14 -25 -30 -25 -37 0 -6 -10
-20 -22 -30 -11 -11 -19 -22 -15 -25 8 -8 57 41 57 57 0 6 9 20 21 30 12 10
19 25 16 36 -3 10 -5 13 -6 6z"/>
<path d="M4105 6807 c-22 -23 -51 -58 -65 -77 -13 -19 -29 -38 -34 -42 -6 -4
-7 -10 -4 -13 8 -8 78 60 78 75 0 7 18 29 40 50 22 21 40 41 40 44 0 14 -18 2
-55 -37z"/>
<path d="M4330 6812 c0 -10 -9 -24 -20 -32 -11 -8 -20 -22 -20 -31 0 -10 -6
-19 -12 -22 -7 -2 -10 -8 -6 -12 9 -9 38 19 38 37 0 8 9 20 20 28 21 15 28 50
10 50 -5 0 -10 -8 -10 -18z"/>
<path d="M3140 6755 c0 -19 5 -35 10 -35 6 0 10 16 10 35 0 19 -4 35 -10 35
-5 0 -10 -16 -10 -35z"/>
<path d="M4910 6780 c0 -5 5 -10 10 -10 6 0 10 5 10 10 0 6 -4 10 -10 10 -5 0
-10 -4 -10 -10z"/>
<path d="M4960 6780 c0 -5 5 -10 10 -10 6 0 10 5 10 10 0 6 -4 10 -10 10 -5 0
-10 -4 -10 -10z"/>
<path d="M3370 6760 c0 -5 5 -10 10 -10 6 0 10 5 10 10 0 6 -4 10 -10 10 -5 0
-10 -4 -10 -10z"/>
<path d="M4370 6760 c0 -5 5 -10 10 -10 6 0 10 5 10 10 0 6 -4 10 -10 10 -5 0
-10 -4 -10 -10z"/>
<path d="M5000 6760 c0 -5 5 -10 10 -10 6 0 10 5 10 10 0 6 -4 10 -10 10 -5 0
-10 -4 -10 -10z"/>
<path d="M5730 6760 c0 -5 9 -10 19 -10 11 0 21 -6 24 -12 2 -7 8 -10 12 -6
10 9 -19 38 -39 38 -9 0 -16 -4 -16 -10z"/>
<path d="M2200 6741 c0 -5 -9 -13 -21 -16 -11 -4 -39 -26 -62 -50 -79 -81 -77
-75 -75 -188 l2 -102 3 99 c4 93 6 101 31 126 15 15 34 36 43 46 9 10 26 26
39 34 12 8 28 21 36 28 19 18 102 15 122 -4 11 -12 17 -13 20 -5 7 22 -32 40
-85 41 -29 0 -53 -4 -53 -9z"/>
<path d="M3675 6730 c-10 -11 -15 -20 -11 -20 11 0 39 30 34 36 -3 2 -13 -5
-23 -16z"/>
<path d="M4843 6743 c-15 -6 -18 -53 -3 -53 6 0 10 9 10 20 0 11 5 20 10 20 6
0 10 5 10 10 0 11 -7 12 -27 3z"/>
<path d="M3350 6710 c0 -11 5 -20 10 -20 6 0 10 9 10 20 0 11 -4 20 -10 20 -5
0 -10 -9 -10 -20z"/>
<path d="M4330 6700 c0 -5 5 -10 10 -10 6 0 10 5 10 10 0 6 -4 10 -10 10 -5 0
-10 -4 -10 -10z"/>
<path d="M5620 6672 c0 -21 8 -48 17 -62 12 -17 13 -25 5 -28 -21 -7 -13 -22
11 -22 22 0 97 59 97 75 0 4 9 16 20 25 20 18 19 18 -40 25 -33 4 -63 11 -66
16 -3 5 -14 9 -25 9 -15 0 -19 -7 -19 -38z"/>
<path d="M5795 6700 c-3 -5 -1 -10 4 -10 6 0 11 5 11 10 0 6 -2 10 -4 10 -3 0
-8 -4 -11 -10z"/>
<path d="M3120 6540 c0 -100 4 -160 10 -160 6 0 10 60 10 160 0 100 -4 160
-10 160 -6 0 -10 -60 -10 -160z"/>
<path d="M3540 6685 c0 -8 5 -15 10 -15 6 0 10 7 10 15 0 8 -4 15 -10 15 -5 0
-10 -7 -10 -15z"/>
<path d="M3330 6660 c0 -11 5 -20 10 -20 6 0 10 9 10 20 0 11 -4 20 -10 20 -5
0 -10 -9 -10 -20z"/>
<path d="M4221 6664 c-7 -8 -11 -17 -9 -20 3 -2 13 5 23 16 10 11 14 20 9 20
-5 -1 -15 -8 -23 -16z"/>
<path d="M4810 6655 c0 -14 5 -25 10 -25 6 0 10 11 10 25 0 14 -4 25 -10 25
-5 0 -10 -11 -10 -25z"/>
<path d="M2333 6615 c0 -33 2 -45 4 -27 2 18 2 45 0 60 -2 15 -4 0 -4 -33z"/>
<path d="M3961 6634 c-12 -14 -21 -27 -19 -30 3 -2 17 10 33 26 16 17 25 30
19 29 -5 0 -20 -11 -33 -25z"/>
<path d="M3488 6618 c-10 -12 -15 -25 -12 -30 4 -5 12 3 20 18 18 34 14 39 -8
12z"/>
<path d="M5592 6620 c0 -14 2 -19 5 -12 2 6 2 18 0 25 -3 6 -5 1 -5 -13z"/>
<path d="M3310 6589 c0 -17 4 -28 10 -24 6 3 10 17 10 31 0 13 -4 24 -10 24
-5 0 -10 -14 -10 -31z"/>
<path d="M5065 6601 c-3 -5 -1 -12 5 -16 5 -3 10 1 10 9 0 18 -6 21 -15 7z"/>
<path d="M3560 6589 c0 -5 5 -7 10 -4 6 3 10 8 10 11 0 2 -4 4 -10 4 -5 0 -10
-5 -10 -11z"/>
<path d="M3921 6593 c0 -7 -17 -29 -37 -48 -20 -20 -34 -39 -31 -42 11 -10 78
67 74 85 -3 9 -5 12 -6 5z"/>
<path d="M4165 6590 c3 -5 8 -10 11 -10 2 0 4 5 4 10 0 6 -5 10 -11 10 -5 0
-7 -4 -4 -10z"/>
<path d="M4790 6495 c0 -63 4 -105 10 -105 6 0 10 42 10 105 0 63 -4 105 -10
105 -6 0 -10 -42 -10 -105z"/>
<path d="M4130 6560 c-8 -11 -20 -20 -28 -20 -18 0 -46 -29 -37 -38 4 -4 10
-1 12 6 3 6 11 12 19 12 14 0 64 43 64 55 0 12 -16 4 -30 -15z"/>
<path d="M3290 6473 c0 -36 2 -64 4 -62 9 11 15 129 6 129 -6 0 -10 -30 -10
-67z"/>
<path d="M3421 6533 c0 -7 -12 -23 -26 -37 -14 -14 -25 -32 -25 -40 0 -8 -6
-16 -12 -19 -7 -2 -10 -8 -6 -12 8 -9 38 19 38 36 0 6 9 20 21 30 12 10 19 25
16 36 -3 10 -5 13 -6 6z"/>
<path d="M3830 6475 c0 -8 -4 -15 -10 -15 -5 0 -10 -6 -10 -13 0 -7 -9 -19
-20 -27 -11 -8 -20 -21 -20 -30 0 -15 4 -11 63 59 19 24 22 41 7 41 -5 0 -10
-7 -10 -15z"/>
<path d="M2353 6425 c0 -22 2 -30 4 -17 2 12 2 30 0 40 -3 9 -5 -1 -4 -23z"/>
<path d="M3960 6420 c-13 -11 -19 -20 -14 -20 14 1 48 29 42 35 -2 3 -15 -4
-28 -15z"/>
<path d="M3683 6413 c-13 -2 -23 -11 -23 -19 0 -8 -4 -14 -10 -14 -5 0 -10 -7
-10 -15 0 -8 -4 -15 -10 -15 -5 0 -10 -4 -10 -10 0 -5 14 -10 30 -10 17 0 30
-4 30 -10 0 -5 7 -10 15 -10 8 0 15 -9 15 -20 0 -15 7 -20 25 -20 14 0 25 5
25 10 0 6 -9 10 -20 10 -11 0 -20 5 -20 10 0 6 5 10 10 10 6 0 10 7 10 16 0 8
-4 12 -10 9 -5 -3 -20 3 -32 14 -13 12 -16 21 -9 21 18 0 62 36 54 44 -7 6
-23 6 -60 -1z"/>
<path d="M3290 6379 c0 -23 7 -24 25 -5 12 12 11 15 -5 19 -15 4 -20 0 -20
-14z"/>
<path d="M3750 6359 c0 -5 5 -7 10 -4 6 3 10 8 10 11 0 2 -4 4 -10 4 -5 0 -10
-5 -10 -11z"/>
<path d="M3860 6350 c-8 -11 -22 -20 -32 -20 -10 0 -18 -4 -18 -10 0 -5 -9
-10 -20 -10 -11 0 -20 -4 -20 -10 0 -5 9 -10 20 -10 11 0 20 5 20 10 0 6 7 10
16 10 9 0 24 8 33 18 9 10 25 24 36 30 20 11 20 11 0 12 -11 0 -27 -9 -35 -20z"/>
<path d="M4810 6340 c0 -16 5 -30 10 -30 6 0 10 -9 10 -20 0 -11 5 -20 10 -20
6 0 10 9 10 20 0 11 -4 20 -10 20 -5 0 -10 14 -10 30 0 17 -4 30 -10 30 -5 0
-10 -13 -10 -30z"/>
<path d="M5060 6340 c0 -16 5 -30 10 -30 6 0 10 14 10 30 0 17 -4 30 -10 30
-5 0 -10 -13 -10 -30z"/>
<path d="M3140 6335 c0 -14 5 -25 10 -25 6 0 10 11 10 25 0 14 -4 25 -10 25
-5 0 -10 -11 -10 -25z"/>
<path d="M3350 6340 c0 -5 5 -10 10 -10 6 0 10 5 10 10 0 6 -4 10 -10 10 -5 0
-10 -4 -10 -10z"/>
<path d="M3480 6339 c0 -5 5 -7 10 -4 6 3 10 8 10 11 0 2 -4 4 -10 4 -5 0 -10
-5 -10 -11z"/>
<path d="M2063 6290 c0 -25 2 -35 4 -22 2 12 2 32 0 45 -2 12 -4 2 -4 -23z"/>
<path d="M2370 6313 c0 -13 5 -23 10 -23 13 0 13 11 0 30 -8 12 -10 11 -10 -7z"/>
<path d="M3250 6320 c0 -5 -11 -10 -25 -10 -14 0 -25 -4 -25 -10 0 -5 -9 -10
-20 -10 -15 0 -20 -7 -20 -25 0 -14 -4 -25 -10 -25 -5 0 -10 -7 -10 -15 0 -8
-4 -15 -10 -15 -5 0 -10 -7 -10 -15 0 -8 5 -15 10 -15 6 0 10 5 10 10 0 15 85
100 99 100 6 0 11 5 11 10 0 18 31 10 55 -15 14 -13 25 -31 25 -40 0 -8 5 -15
10 -15 6 0 10 9 10 19 0 11 6 21 12 23 9 3 8 10 -5 23 -16 15 -20 16 -27 4 -7
-11 -13 -9 -28 9 -20 22 -52 30 -52 12z"/>
<path d="M3440 6320 c0 -5 7 -10 15 -10 8 0 15 5 15 10 0 6 -7 10 -15 10 -8 0
-15 -4 -15 -10z"/>
<path d="M3935 6320 c3 -5 8 -10 11 -10 2 0 4 5 4 10 0 6 -5 10 -11 10 -5 0
-7 -4 -4 -10z"/>
<path d="M3390 6300 c0 -5 9 -10 20 -10 11 0 20 5 20 10 0 6 -9 10 -20 10 -11
0 -20 -4 -20 -10z"/>
<path d="M3640 6300 c0 -5 7 -10 15 -10 8 0 15 5 15 10 0 6 -7 10 -15 10 -8 0
-15 -4 -15 -10z"/>
<path d="M3577 6270 c-5 -21 1 -24 27 -14 22 9 20 34 -3 34 -10 0 -21 -9 -24
-20z"/>
<path d="M3841 6274 c-7 -8 -10 -18 -6 -22 4 -4 10 -1 12 6 3 6 13 12 24 12
10 0 19 5 19 10 0 15 -33 11 -49 -6z"/>
<path d="M3640 6260 c0 -5 -9 -10 -20 -10 -11 0 -20 -4 -20 -9 0 -5 -9 -13
-20 -16 -17 -6 -30 -35 -14 -35 12 0 50 24 65 42 22 24 44 23 57 -4 9 -19 11
-20 11 -5 1 10 -5 25 -13 33 -17 16 -46 19 -46 4z"/>
<path d="M3790 6240 c0 -5 5 -10 11 -10 5 0 7 5 4 10 -3 6 -8 10 -11 10 -2 0
-4 -4 -4 -10z"/>
<path d="M2390 6210 c0 -11 5 -20 10 -20 6 0 10 9 10 20 0 11 -4 20 -10 20 -5
0 -10 -9 -10 -20z"/>
<path d="M3750 6220 c0 -5 5 -10 11 -10 5 0 7 5 4 10 -3 6 -8 10 -11 10 -2 0
-4 -4 -4 -10z"/>
<path d="M3245 6210 c4 -6 11 -8 16 -5 14 9 11 15 -7 15 -8 0 -12 -5 -9 -10z"/>
<path d="M2083 6175 c0 -22 2 -30 4 -17 2 12 2 30 0 40 -3 9 -5 -1 -4 -23z"/>
<path d="M3707 6203 c-2 -5 -1 -21 3 -38 l6 -30 5 33 c5 30 -4 53 -14 35z"/>
<path d="M3273 6160 c0 -25 2 -35 4 -22 2 12 2 32 0 45 -2 12 -4 2 -4 -23z"/>
<path d="M5040 6170 c0 -5 5 -10 10 -10 6 0 10 5 10 10 0 6 -4 10 -10 10 -5 0
-10 -4 -10 -10z"/>
<path d="M3100 6154 c0 -8 5 -12 10 -9 6 3 10 10 10 16 0 5 -4 9 -10 9 -5 0
-10 -7 -10 -16z"/>
<path d="M3630 6160 c-13 -8 -12 -10 4 -10 10 0 25 -8 32 -17 9 -12 13 -14 14
-5 0 12 -23 42 -32 42 -2 0 -10 -5 -18 -10z"/>
<path d="M2410 6135 c0 -8 5 -15 10 -15 6 0 10 7 10 15 0 8 -4 15 -10 15 -5 0
-10 -7 -10 -15z"/>
<path d="M2100 6092 c0 -18 5 -32 10 -32 6 0 8 11 4 28 -10 39 -14 40 -14 4z"/>
<path d="M3111 6104 c-18 -21 -6 -30 14 -11 8 9 15 18 15 21 0 11 -15 5 -29
-10z"/>
<path d="M3560 6089 c0 -5 5 -7 10 -4 6 3 10 8 10 11 0 2 -4 4 -10 4 -5 0 -10
-5 -10 -11z"/>
<path d="M3692 6070 c0 -19 2 -27 5 -17 2 9 2 25 0 35 -3 9 -5 1 -5 -18z"/>
<path d="M2430 6060 c0 -11 5 -20 10 -20 6 0 10 9 10 20 0 11 -4 20 -10 20 -5
0 -10 -9 -10 -20z"/>
<path d="M3040 6044 c0 -8 5 -12 10 -9 6 4 8 11 5 16 -9 14 -15 11 -15 -7z"/>
<path d="M3080 6050 c0 -5 5 -10 10 -10 6 0 10 5 10 10 0 6 -4 10 -10 10 -5 0
-10 -4 -10 -10z"/>
<path d="M3726 6037 c-5 -15 -6 -31 -2 -34 11 -11 18 5 14 34 l-4 28 -8 -28z"/>
<path d="M5170 6050 c0 -5 7 -10 15 -10 8 0 15 5 15 10 0 6 -7 10 -15 10 -8 0
-15 -4 -15 -10z"/>
<path d="M2120 6023 c0 -13 5 -23 10 -23 13 0 13 11 0 30 -8 12 -10 11 -10 -7z"/>
<path d="M5928 6023 c6 -2 18 -2 25 0 6 3 1 5 -13 5 -14 0 -19 -2 -12 -5z"/>
<path d="M2455 6011 c-3 -5 -1 -12 5 -16 5 -3 10 1 10 9 0 18 -6 21 -15 7z"/>
<path d="M3020 6010 c0 -5 5 -10 11 -10 5 0 7 5 4 10 -3 6 -8 10 -11 10 -2 0
-4 -4 -4 -10z"/>
<path d="M3272 5955 c0 -70 0 -70 9 -24 6 29 5 56 0 70 -8 18 -10 7 -9 -46z"/>
<path d="M5520 5990 c0 -5 5 -10 10 -10 6 0 10 5 10 10 0 6 -4 10 -10 10 -5 0
-10 -4 -10 -10z"/>
<path d="M3001 5974 c0 -11 3 -14 6 -6 3 7 2 16 -1 19 -3 4 -6 -2 -5 -13z"/>
<path d="M2140 5951 c0 -12 5 -21 10 -21 6 0 10 6 10 14 0 8 -4 18 -10 21 -5
3 -10 -3 -10 -14z"/>
<path d="M2481 5944 c0 -11 3 -14 6 -6 3 7 2 16 -1 19 -3 4 -6 -2 -5 -13z"/>
<path d="M3041 5944 c0 -11 3 -14 6 -6 3 7 2 16 -1 19 -3 4 -6 -2 -5 -13z"/>
<path d="M6125 5940 c4 -6 11 -8 16 -5 14 9 11 15 -7 15 -8 0 -12 -5 -9 -10z"/>
<path d="M2961 5914 c0 -11 3 -14 6 -6 3 7 2 16 -1 19 -3 4 -6 -2 -5 -13z"/>
<path d="M3752 5900 c0 -19 2 -27 5 -17 2 9 2 25 0 35 -3 9 -5 1 -5 -18z"/>
<path d="M2160 5890 c0 -11 5 -20 10 -20 6 0 10 9 10 20 0 11 -4 20 -10 20 -5
0 -10 -9 -10 -20z"/>
<path d="M2501 5894 c0 -11 3 -14 6 -6 3 7 2 16 -1 19 -3 4 -6 -2 -5 -13z"/>
<path d="M3482 5890 c0 -14 2 -19 5 -12 2 6 2 18 0 25 -3 6 -5 1 -5 -13z"/>
<path d="M6112 5890 c0 -14 2 -19 5 -12 2 6 2 18 0 25 -3 6 -5 1 -5 -13z"/>
<path d="M2923 5875 c-7 -8 -13 -20 -13 -27 0 -8 -9 -20 -20 -28 -11 -8 -20
-20 -20 -27 0 -7 -4 -13 -10 -13 -5 0 -10 -6 -10 -14 0 -8 -6 -16 -12 -19 -7
-2 -10 -8 -6 -12 8 -9 38 18 38 34 0 6 5 11 10 11 6 0 10 6 10 13 0 7 9 19 20
27 11 8 20 22 20 32 0 10 5 18 10 18 6 0 10 5 10 10 0 14 -13 12 -27 -5z"/>
<path d="M3022 5860 c0 -19 2 -27 5 -17 2 9 2 25 0 35 -3 9 -5 1 -5 -18z"/>
<path d="M6210 5880 c0 -5 5 -10 10 -10 6 0 10 5 10 10 0 6 -4 10 -10 10 -5 0
-10 -4 -10 -10z"/>
<path d="M3251 5825 c1 -48 1 -49 9 -15 5 19 4 41 0 50 -6 10 -9 -1 -9 -35z"/>
<path d="M6070 5839 c-14 -15 -29 -29 -34 -29 -5 0 -16 -8 -25 -18 -9 -10 -25
-24 -36 -30 -20 -11 -20 -11 0 -12 11 0 27 9 35 20 8 11 20 20 28 20 15 0 31
15 50 49 19 33 11 34 -18 0z"/>
<path d="M2521 5844 c0 -11 3 -14 6 -6 3 7 2 16 -1 19 -3 4 -6 -2 -5 -13z"/>
<path d="M880 5840 c0 -5 7 -10 15 -10 8 0 15 -4 15 -8 0 -5 12 -15 28 -23 25
-13 57 -43 92 -85 67 -83 72 -94 40 -94 -11 0 -20 5 -20 10 0 6 -29 10 -66 10
-41 0 -63 -4 -59 -10 3 -5 15 -10 26 -10 10 0 19 -4 19 -10 0 -5 9 -10 20 -10
11 0 20 -4 20 -10 0 -5 7 -10 15 -10 8 0 15 -4 15 -10 0 -5 7 -10 15 -10 28 0
16 -37 -15 -50 -17 -7 -45 -26 -61 -41 -36 -33 -33 -33 -60 -16 -17 10 -22 9
-35 -8 -20 -27 -36 -91 -31 -128 l3 -32 8 33 c11 40 35 42 43 2 3 -17 10 -33
14 -36 5 -3 9 -18 9 -34 0 -16 5 -32 10 -35 18 -11 11 -47 -10 -52 -20 -5 -29
-43 -10 -43 6 0 10 6 10 13 0 8 4 7 10 -3 15 -24 12 -30 -16 -30 l-27 0 7 -71
c7 -69 17 -98 43 -126 16 -17 23 -16 23 3 0 20 49 64 72 64 20 0 98 -41 98
-52 0 -4 9 -8 20 -8 11 0 20 -4 20 -10 0 -5 9 -10 20 -10 11 0 20 5 20 10 0 6
-9 10 -20 10 -11 0 -20 5 -20 10 0 6 -5 10 -11 10 -15 0 -35 26 -55 70 -25 53
-30 219 -10 316 27 134 49 161 83 104 9 -16 21 -30 25 -30 4 0 8 -13 8 -30 0
-16 5 -30 10 -30 6 0 10 -13 10 -30 0 -16 5 -30 10 -30 16 0 12 -99 -4 -116
-21 -21 -46 -17 -46 6 0 13 7 20 20 20 24 0 27 25 4 34 -23 9 -24 8 -24 -14 0
-11 -4 -20 -10 -20 -6 0 -10 -35 -10 -84 0 -47 5 -88 10 -91 6 -3 10 -16 10
-27 0 -22 35 -59 54 -57 6 0 6 3 -1 6 -17 6 -16 30 1 40 8 4 16 17 19 28 4 11
5 3 4 -17 l-3 -37 36 21 c19 12 47 30 62 40 14 10 31 18 37 18 25 0 61 25 61
42 0 10 -4 18 -10 18 -5 0 -10 7 -10 16 0 8 -7 22 -15 31 -9 8 -19 28 -22 44
-3 16 -9 29 -13 29 -4 0 -10 10 -13 23 -35 149 -77 266 -99 275 -4 2 -8 12 -8
23 0 10 -4 19 -10 19 -5 0 -10 14 -10 30 0 17 -4 30 -10 30 -5 0 -10 9 -10 20
0 11 -4 20 -10 20 -5 0 -10 14 -10 30 0 17 -4 30 -10 30 -5 0 -10 11 -10 25 0
14 -4 25 -10 25 -5 0 -10 9 -10 19 0 11 -4 23 -10 26 -6 4 -10 -17 -10 -54 0
-34 -2 -61 -5 -61 -2 0 -29 25 -59 55 -29 30 -60 55 -68 55 -7 0 -20 9 -28 20
-8 11 -22 20 -32 20 -10 0 -18 5 -18 10 0 6 -16 10 -35 10 -19 0 -35 -4 -35
-10z"/>
<path d="M2180 5830 c0 -11 5 -20 10 -20 6 0 10 9 10 20 0 11 -4 20 -10 20 -5
0 -10 -9 -10 -20z"/>
<path d="M3690 5811 c0 -53 -46 -193 -73 -221 -10 -12 -17 -23 -14 -26 8 -9
37 8 37 22 0 8 5 14 10 14 6 0 10 11 10 24 0 14 5 28 10 31 6 3 10 22 10 41 0
19 4 34 9 34 12 0 20 91 10 110 -5 10 -9 -1 -9 -29z"/>
<path d="M3143 5805 c-13 -13 -23 -33 -23 -45 0 -11 -4 -20 -10 -20 -6 0 -10
-30 -10 -70 0 -40 4 -70 10 -70 6 0 10 -9 10 -20 0 -11 7 -20 15 -20 18 0 65
44 65 60 0 6 6 23 14 38 8 15 17 43 20 62 5 30 2 40 -28 73 -19 20 -36 37 -38
36 -1 0 -13 -11 -25 -24z m40 -28 c3 -7 3 -25 0 -40 -7 -37 -43 -38 -43 -2 0
39 32 70 43 42z"/>
<path d="M2205 5797 c-4 -10 -5 -21 -1 -24 10 -10 18 4 13 24 -4 17 -4 17 -12
0z"/>
<path d="M3457 5743 c-4 -47 -3 -96 5 -138 12 -63 13 -65 43 -65 35 0 55 15
55 42 0 10 5 18 10 18 16 0 13 159 -4 176 -22 21 -63 18 -71 -6 -10 -30 -23
-24 -27 13 -2 20 -6 5 -11 -40z m93 2 c16 -19 -1 -65 -24 -65 -20 0 -27 26
-14 55 13 29 21 31 38 10z"/>
<path d="M3772 5790 c0 -14 2 -19 5 -12 2 6 2 18 0 25 -3 6 -5 1 -5 -13z"/>
<path d="M5461 5794 c0 -11 3 -14 6 -6 3 7 2 16 -1 19 -3 4 -6 -2 -5 -13z"/>
<path d="M2225 5741 c-3 -5 -1 -12 5 -16 5 -3 10 1 10 9 0 18 -6 21 -15 7z"/>
<path d="M5920 5740 c0 -5 5 -10 11 -10 5 0 7 5 4 10 -3 6 -8 10 -11 10 -2 0
-4 -4 -4 -10z"/>
<path d="M2782 5684 c-18 -19 -29 -34 -25 -34 11 0 24 11 52 43 35 39 12 32
-27 -9z"/>
<path d="M2251 5694 c0 -11 3 -14 6 -6 3 7 2 16 -1 19 -3 4 -6 -2 -5 -13z"/>
<path d="M3791 5694 c0 -11 3 -14 6 -6 3 7 2 16 -1 19 -3 4 -6 -2 -5 -13z"/>
<path d="M3022 5650 c0 -19 2 -27 5 -17 2 9 2 25 0 35 -3 9 -5 1 -5 -18z"/>
<path d="M5441 5654 c0 -11 3 -14 6 -6 3 7 2 16 -1 19 -3 4 -6 -2 -5 -13z"/>
<path d="M2620 5654 c0 -10 31 -36 37 -31 3 3 -2 13 -10 22 -16 15 -27 19 -27
9z"/>
<path d="M3810 5610 c0 -5 5 -10 10 -10 6 0 10 5 10 10 0 6 -4 10 -10 10 -5 0
-10 -4 -10 -10z"/>
<path d="M5900 5610 c0 -5 5 -10 10 -10 6 0 10 5 10 10 0 6 -4 10 -10 10 -5 0
-10 -4 -10 -10z"/>
<path d="M5770 5590 c0 -5 7 -10 16 -10 8 0 12 5 9 10 -3 6 -10 10 -16 10 -5
0 -9 -4 -9 -10z"/>
<path d="M2311 5572 c-1 -7 -11 -17 -23 -22 -21 -8 -20 -9 9 -9 17 -1 34 -7
37 -13 5 -10 7 -10 12 0 9 19 143 16 165 -3 15 -14 18 -14 32 0 9 8 26 15 39
16 22 0 22 1 3 9 -11 5 -75 9 -142 9 -87 1 -123 5 -126 14 -4 9 -6 9 -6 -1z"/>
<path d="M5620 5570 c0 -5 11 -10 25 -10 14 0 25 5 25 10 0 6 -11 10 -25 10
-14 0 -25 -4 -25 -10z"/>
<path d="M3860 5550 c-12 -8 -11 -10 8 -10 12 0 22 5 22 10 0 13 -11 13 -30 0z"/>
<path d="M3955 5550 c-29 -4 37 -7 155 -7 133 -1 191 2 165 8 -47 9 -248 9
-320 -1z"/>
<path d="M2148 5523 c6 -2 18 -2 25 0 6 3 1 5 -13 5 -14 0 -19 -2 -12 -5z"/>
<path d="M4373 5523 c15 -2 37 -2 50 0 12 2 0 4 -28 4 -27 0 -38 -2 -22 -4z"/>
<path d="M3248 5515 c-8 -8 3 -55 13 -55 5 0 9 -5 9 -11 0 -12 25 -39 37 -39
4 0 20 11 36 24 34 29 39 86 7 86 -11 0 -20 -4 -20 -10 0 -5 5 -10 10 -10 16
0 11 -29 -8 -51 -19 -19 -19 -19 -46 5 -21 17 -26 29 -21 45 6 19 -4 29 -17
16z"/>
<path d="M2350 5495 c0 -8 4 -15 10 -15 5 0 7 7 4 15 -4 8 -8 15 -10 15 -2 0
-4 -7 -4 -15z"/>
<path d="M2913 5503 c15 -2 37 -2 50 0 12 2 0 4 -28 4 -27 0 -38 -2 -22 -4z"/>
<path d="M3633 5503 c9 -2 23 -2 30 0 6 3 -1 5 -18 5 -16 0 -22 -2 -12 -5z"/>
<path d="M2993 5477 c-13 -21 -94 -47 -146 -47 -30 0 -46 -4 -42 -10 3 -5 37
-10 76 -10 l69 0 0 -36 c0 -19 6 -42 14 -50 15 -15 40 -90 52 -159 3 -22 15
-58 25 -79 11 -22 19 -47 19 -55 1 -18 23 -51 35 -51 8 0 2 56 -10 83 -5 13
-2 17 14 17 12 0 21 5 21 10 0 6 25 10 55 10 56 0 95 -20 95 -47 0 -7 5 -13
10 -13 6 0 10 -9 10 -20 0 -11 5 -20 10 -20 6 0 10 16 10 36 0 27 5 37 20 41
11 3 20 9 20 14 0 5 15 9 34 9 37 0 82 -37 92 -77 4 -12 9 -23 13 -23 16 0 71
79 71 103 0 7 9 19 20 27 11 8 20 25 20 37 0 13 5 23 10 23 6 0 10 7 10 15 0
8 5 15 10 15 6 0 10 5 10 12 0 24 65 97 88 98 18 0 22 6 22 30 0 26 -4 30 -28
30 -37 0 -46 10 -24 26 15 12 12 13 -23 14 -22 1 -60 5 -85 10 -30 6 -65 5
-102 -3 -56 -11 -79 -27 -38 -27 11 0 20 -4 20 -10 0 -5 -9 -10 -20 -10 -22 0
-27 -16 -7 -23 8 -3 5 -11 -10 -24 -17 -15 -23 -31 -23 -62 0 -22 -4 -41 -10
-41 -5 0 -10 -11 -10 -25 0 -31 -41 -75 -70 -75 -11 0 -20 -4 -20 -10 0 -5
-11 -10 -25 -10 -14 0 -25 5 -25 10 0 6 -12 10 -27 10 -44 1 -60 34 -64 128
-2 45 0 82 4 82 10 0 37 26 37 34 0 3 -13 6 -30 6 -16 0 -30 5 -30 10 0 6 7
10 16 10 8 0 22 7 30 15 14 13 14 17 0 31 -33 33 -176 49 -193 21z m170 -38
c-8 -8 -16 -8 -30 0 -16 9 -14 10 12 11 21 0 26 -3 18 -11z"/>
<path d="M3518 5483 c12 -2 32 -2 45 0 12 2 2 4 -23 4 -25 0 -35 -2 -22 -4z"/>
<path d="M2370 5460 c0 -5 5 -10 10 -10 6 0 10 5 10 10 0 6 -4 10 -10 10 -5 0
-10 -4 -10 -10z"/>
<path d="M3420 5460 c0 -5 16 -10 35 -10 19 0 35 5 35 10 0 6 -16 10 -35 10
-19 0 -35 -4 -35 -10z"/>
<path d="M2390 5425 c0 -8 5 -15 10 -15 6 0 10 -9 10 -20 0 -17 -7 -20 -40
-20 -22 0 -40 -4 -40 -10 0 -15 77 -12 83 3 4 9 8 8 17 -3 9 -11 13 -12 17 -2
3 7 23 12 49 12 32 0 44 4 44 14 0 19 -17 29 -25 16 -17 -27 -105 -3 -105 29
0 6 -4 11 -10 11 -5 0 -10 -7 -10 -15z"/>
<path d="M3768 5423 c18 -2 45 -2 60 0 15 2 0 4 -33 4 -33 0 -45 -2 -27 -4z"/>
<path d="M2618 5403 c12 -2 32 -2 45 0 12 2 2 4 -23 4 -25 0 -35 -2 -22 -4z"/>
<path d="M3960 5400 c20 -13 60 -13 60 0 0 6 -17 10 -37 10 -28 0 -34 -3 -23
-10z"/>
<path d="M4110 5380 c20 -13 50 -13 50 0 0 6 -15 10 -32 10 -25 0 -29 -3 -18
-10z"/>
<path d="M4190 5360 c0 -5 18 -10 40 -10 22 0 40 5 40 10 0 6 -18 10 -40 10
-22 0 -40 -4 -40 -10z"/>
<path d="M2240 5340 c0 -5 -13 -10 -30 -10 -16 0 -30 -4 -30 -10 0 -5 14 -10
30 -10 17 0 30 5 30 10 0 6 16 10 35 10 19 0 35 5 35 10 0 6 -16 10 -35 10
-19 0 -35 -4 -35 -10z"/>
<path d="M2870 5340 c0 -5 16 -10 36 -10 21 0 33 4 29 10 -3 6 -19 10 -36 10
-16 0 -29 -4 -29 -10z"/>
<path d="M4290 5340 c0 -5 9 -10 20 -10 11 0 20 5 20 10 0 6 -9 10 -20 10 -11
0 -20 -4 -20 -10z"/>
<path d="M2805 5320 c-3 -5 3 -10 15 -10 12 0 18 5 15 10 -3 6 -10 10 -15 10
-5 0 -12 -4 -15 -10z"/>
<path d="M3770 5320 c0 -5 18 -10 40 -10 22 0 40 5 40 10 0 6 -18 10 -40 10
-22 0 -40 -4 -40 -10z"/>
<path d="M4350 5320 c0 -5 14 -10 30 -10 17 0 30 5 30 10 0 6 -13 10 -30 10
-16 0 -30 -4 -30 -10z"/>
<path d="M3860 5300 c-11 -7 -6 -10 20 -10 26 0 31 3 20 10 -8 5 -17 10 -20
10 -3 0 -12 -5 -20 -10z"/>
<path d="M2128 5293 c6 -2 18 -2 25 0 6 3 1 5 -13 5 -14 0 -19 -2 -12 -5z"/>
<path d="M2728 5293 c7 -3 16 -2 19 1 4 3 -2 6 -13 5 -11 0 -14 -3 -6 -6z"/>
<path d="M5282 5282 c-8 -6 -1 -14 23 -25 47 -22 36 -37 -26 -37 -27 0 -49 -4
-49 -10 0 -5 -15 -10 -34 -10 -19 0 -38 -4 -41 -10 -3 -5 -17 -10 -31 -10 -13
0 -24 -4 -24 -10 0 -5 -13 -10 -30 -10 -16 0 -30 -4 -30 -10 0 -5 -9 -10 -20
-10 -11 0 -20 -4 -20 -10 0 -5 -9 -10 -20 -10 -11 0 -20 -4 -20 -10 0 -5 -7
-10 -15 -10 -8 0 -15 -4 -15 -10 0 -5 -7 -10 -15 -10 -8 0 -15 -4 -15 -10 0
-5 -7 -10 -15 -10 -8 0 -15 -4 -15 -9 0 -19 -68 -22 -109 -4 -23 10 -41 21
-41 25 0 5 -7 8 -15 8 -8 0 -15 5 -15 10 0 6 -7 10 -15 10 -8 0 -15 5 -15 10
0 6 -9 10 -20 10 -11 0 -20 5 -20 10 0 6 -18 10 -40 10 -22 0 -40 -4 -40 -10
0 -5 -13 -10 -28 -10 -16 0 -34 -8 -42 -20 -8 -11 -22 -20 -32 -20 -9 0 -19
-8 -22 -17 -3 -10 -24 -37 -46 -61 -22 -23 -40 -49 -40 -57 0 -8 -4 -15 -10
-15 -5 0 -10 -13 -10 -30 0 -16 -4 -30 -10 -30 -5 0 -10 -13 -10 -30 0 -16 5
-30 10 -30 6 0 10 -11 10 -25 0 -14 5 -25 10 -25 6 0 10 -7 10 -15 0 -8 4 -15
8 -15 4 0 21 -23 36 -52 30 -56 49 -78 65 -78 6 0 11 -4 11 -10 0 -5 9 -10 19
-10 11 0 23 -4 26 -10 3 -5 13 -10 21 -10 23 0 44 -26 44 -54 0 -14 5 -26 10
-26 6 0 10 -5 10 -11 0 -14 25 -39 39 -39 6 0 11 -4 11 -10 0 -6 27 -10 60
-10 33 0 60 4 60 10 0 6 7 10 15 10 15 0 65 43 65 56 0 3 14 19 31 35 21 20
45 30 80 35 27 4 52 11 55 15 3 5 12 9 20 9 8 0 26 11 39 25 21 20 25 34 25
80 0 30 -4 55 -10 55 -5 0 -10 5 -10 10 0 6 -34 44 -75 85 -41 42 -75 79 -75
83 0 21 102 42 303 62 59 6 114 13 122 16 25 10 33 -29 50 -256 16 -209 16
-332 -2 -429 -5 -31 -4 -33 17 -26 12 4 46 10 76 14 66 9 73 16 46 40 -12 10
-22 24 -22 30 0 7 -7 19 -15 27 -21 22 -36 86 -28 125 11 55 43 79 107 79 30
0 56 -4 58 -8 2 -4 17 -17 33 -29 45 -31 75 -95 75 -157 0 -29 -4 -56 -9 -61
-5 -6 -11 -21 -13 -33 -3 -24 2 -28 110 -65 17 -7 32 -15 32 -19 0 -5 7 -8 15
-8 8 0 15 -4 15 -10 0 -5 5 -10 10 -10 6 0 10 15 10 33 0 60 38 186 62 208 10
9 18 22 18 29 0 10 39 50 75 78 19 14 66 32 85 32 29 0 70 -22 70 -37 0 -7 5
-13 10 -13 6 0 10 -9 10 -20 0 -11 5 -20 10 -20 6 0 10 -22 10 -50 0 -27 -4
-50 -10 -50 -5 0 -10 -4 -10 -10 0 -16 18 -12 40 10 11 11 24 20 28 20 4 0 14
9 22 20 8 11 20 20 27 20 7 0 13 3 13 8 0 12 52 32 83 32 29 0 43 -10 65 -48
14 -26 16 -158 2 -167 -5 -3 -10 -17 -10 -31 0 -13 -4 -24 -10 -24 -5 0 -10
-8 -10 -18 0 -10 -9 -24 -20 -32 -11 -8 -20 -21 -20 -30 0 -9 -9 -22 -20 -30
-11 -8 -20 -22 -20 -31 0 -15 8 -13 53 12 28 16 66 29 84 29 17 0 35 5 38 10
3 6 31 10 61 10 l54 0 0 46 c0 40 5 50 40 84 67 64 175 86 217 44 7 -7 13 -34
13 -59 0 -43 -4 -51 -44 -89 l-45 -42 32 -13 c37 -15 109 -61 119 -76 9 -12 6
-17 63 103 27 56 52 102 57 102 4 0 8 6 8 13 0 7 9 23 20 35 11 12 20 24 20
27 0 7 108 115 115 115 3 0 17 11 31 25 14 14 29 25 33 25 4 0 19 10 32 21 22
20 32 21 119 15 85 -5 215 -37 237 -59 3 -4 13 -7 20 -7 14 0 43 -23 43 -34 0
-3 -7 -6 -15 -6 -8 0 -15 -4 -15 -10 0 -5 -7 -10 -15 -10 -8 0 -15 -4 -15 -10
0 -5 -5 -10 -10 -10 -12 0 -18 -4 -67 -49 -18 -16 -33 -34 -33 -40 0 -6 -4
-11 -10 -11 -5 0 -10 -7 -10 -15 0 -8 -3 -15 -8 -15 -14 0 -31 -73 -21 -92 5
-9 9 -26 9 -37 0 -12 5 -21 10 -21 6 0 10 -7 10 -15 0 -8 4 -15 9 -15 5 0 16
-6 23 -13 19 -19 75 -37 115 -37 34 0 63 -18 63 -40 0 -16 87 -100 104 -100 8
0 18 -4 21 -10 11 -18 118 -11 143 9 12 11 22 24 22 30 0 6 5 11 10 11 6 0 10
22 10 49 0 40 4 51 19 56 30 9 111 98 111 122 0 8 18 32 40 53 22 21 40 48 40
59 0 12 5 21 10 21 6 0 10 18 10 40 0 22 -4 40 -10 40 -5 0 -10 14 -10 30 0
17 -4 30 -10 30 -5 0 -10 7 -10 15 0 26 -71 94 -119 116 -59 27 -168 22 -231
-9 l-42 -21 -34 32 c-68 64 -83 77 -94 77 -5 0 -10 5 -10 10 0 6 -7 10 -15 10
-8 0 -15 5 -15 10 0 6 -9 10 -20 10 -11 0 -20 5 -20 10 0 6 -6 10 -13 10 -8 0
-24 9 -37 20 -23 20 -23 20 -2 20 59 0 3 48 -76 65 -23 5 -32 11 -28 21 21 56
-188 -5 -263 -77 -17 -16 -34 -29 -39 -29 -4 0 -14 -9 -22 -20 -8 -11 -20 -20
-28 -20 -7 0 -28 -16 -48 -35 -19 -19 -38 -35 -43 -35 -8 0 -28 -16 -88 -71
-18 -16 -36 -29 -41 -29 -4 0 -14 -9 -22 -20 -10 -14 -26 -20 -52 -20 -21 0
-38 5 -38 10 0 6 -9 10 -20 10 -11 0 -20 -4 -20 -10 0 -5 -11 -10 -25 -10 -14
0 -25 -4 -25 -10 0 -5 -7 -10 -15 -10 -8 0 -15 -4 -15 -10 0 -5 -11 -10 -25
-10 -14 0 -25 5 -25 10 0 6 3 10 8 10 4 0 13 12 20 27 14 32 16 123 2 123 -5
0 -10 9 -10 20 0 11 5 20 10 20 16 0 13 137 -4 143 -19 8 -26 -1 -26 -35 0
-15 -4 -28 -10 -28 -5 0 -10 -7 -10 -15 0 -9 -26 -42 -57 -75 -43 -44 -62 -57
-72 -51 -20 13 0 130 29 171 21 29 21 30 2 30 -10 0 -33 -13 -50 -30 -37 -35
-42 -36 -42 -10 0 11 5 20 10 20 6 0 10 5 10 10 0 14 46 60 60 60 5 0 10 5 10
10 0 6 9 10 20 10 11 0 20 5 20 10 0 6 9 10 20 10 11 0 20 5 20 10 0 6 -22 10
-50 10 -27 0 -50 -4 -50 -10 0 -5 -7 -10 -15 -10 -8 0 -15 3 -15 6 0 11 29 34
44 34 9 0 16 5 16 10 0 6 11 10 25 10 14 0 25 4 25 9 0 5 19 11 43 15 79 10
117 18 117 25 0 14 -148 31 -175 21 -15 -6 -39 -10 -55 -10 -16 0 -32 -4 -35
-10 -3 -5 -15 -10 -26 -10 -10 0 -19 -4 -19 -10 0 -5 -8 -10 -18 -10 -10 0
-24 -9 -32 -20 -13 -18 -50 -28 -50 -14 0 3 14 19 30 34 17 15 30 31 30 35 0
4 10 16 22 26 46 41 -44 13 -103 -31 -47 -35 -109 -100 -109 -114 0 -6 -9 -18
-20 -26 -11 -8 -20 -18 -20 -23 0 -11 -67 -77 -80 -77 -5 0 -10 -4 -10 -10 0
-5 -6 -10 -13 -10 -18 0 -67 -24 -67 -32 0 -5 -7 -8 -16 -8 -9 0 -25 -9 -35
-21 -16 -19 -20 -20 -34 -6 -17 17 -21 97 -5 97 6 0 10 14 10 30 0 17 5 30 10
30 6 0 10 11 10 24 0 14 5 28 10 31 6 3 10 15 10 26 0 10 -4 19 -10 19 -5 0
-10 -4 -10 -10 0 -5 -7 -10 -15 -10 -9 0 -36 -20 -61 -45 -24 -25 -48 -45 -52
-45 -36 0 -102 -117 -102 -182 0 -16 -4 -28 -10 -28 -5 0 -10 7 -10 15 0 8 -4
15 -10 15 -5 0 -10 9 -10 20 0 11 -4 20 -10 20 -5 0 -10 9 -10 20 0 11 -3 20
-8 20 -7 0 -15 15 -47 94 -23 55 -55 211 -55 267 0 27 -5 61 -11 76 -23 57
-34 78 -51 97 -10 11 -18 23 -18 27 0 4 -9 11 -20 14 -11 3 -27 13 -35 22 -13
12 -18 13 -31 3 -11 -10 -20 -10 -40 -1 -28 13 -113 15 -132 3z"/>
<path d="M2648 5273 c6 -2 18 -2 25 0 6 3 1 5 -13 5 -14 0 -19 -2 -12 -5z"/>
<path d="M3943 5273 c9 -2 23 -2 30 0 6 3 -1 5 -18 5 -16 0 -22 -2 -12 -5z"/>
<path d="M2565 5261 c-6 -5 -21 -11 -35 -13 -31 -4 -32 -18 -2 -29 20 -7 25
-5 29 11 4 15 14 20 37 20 24 0 27 3 16 10 -19 12 -33 13 -45 1z"/>
<path d="M4008 5253 c6 -2 18 -2 25 0 6 3 1 5 -13 5 -14 0 -19 -2 -12 -5z"/>
<path d="M4060 5235 c0 -17 9 -19 28 -6 11 7 10 10 -3 15 -23 9 -25 8 -25 -9z"/>
<path d="M2458 5213 c6 -2 18 -2 25 0 6 3 1 5 -13 5 -14 0 -19 -2 -12 -5z"/>
<path d="M4108 5213 c6 -2 18 -2 25 0 6 3 1 5 -13 5 -14 0 -19 -2 -12 -5z"/>
<path d="M2403 5189 c11 -7 23 -7 35 0 14 9 11 10 -18 10 -29 0 -32 -1 -17
-10z"/>
<path d="M2561 5184 c0 -11 3 -14 6 -6 3 7 2 16 -1 19 -3 4 -6 -2 -5 -13z"/>
<path d="M4168 5193 c6 -2 18 -2 25 0 6 3 1 5 -13 5 -14 0 -19 -2 -12 -5z"/>
<path d="M2350 5170 c0 -5 -9 -10 -20 -10 -11 0 -20 -4 -20 -10 0 -5 6 -10 14
-10 8 0 18 5 21 10 3 6 15 10 26 10 10 0 19 5 19 10 0 6 -9 10 -20 10 -11 0
-20 -4 -20 -10z"/>
<path d="M4210 5176 c0 -9 30 -14 35 -6 4 6 -3 10 -14 10 -12 0 -21 -2 -21 -4z"/>
<path d="M2580 5150 c0 -5 5 -10 10 -10 6 0 10 -7 10 -16 0 -18 28 -49 37 -41
3 3 -2 13 -10 22 -9 8 -19 24 -22 35 -7 21 -25 28 -25 10z"/>
<path d="M4255 5150 c3 -5 13 -10 21 -10 8 0 14 -4 14 -10 0 -5 9 -10 20 -10
11 0 20 -4 20 -10 0 -5 9 -10 20 -10 11 0 20 5 20 10 0 6 -9 10 -20 10 -11 0
-20 5 -20 10 0 6 -9 10 -20 10 -11 0 -20 5 -20 10 0 6 -9 10 -21 10 -11 0 -17
-4 -14 -10z"/>
<path d="M2270 5130 c0 -5 7 -10 15 -10 8 0 15 5 15 10 0 6 -7 10 -15 10 -8 0
-15 -4 -15 -10z"/>
<path d="M2211 5104 c-7 -8 -10 -18 -6 -22 4 -4 10 -1 12 6 3 6 13 12 24 12
10 0 19 5 19 10 0 15 -33 11 -49 -6z"/>
<path d="M1513 5068 c-2 -5 17 -8 43 -8 26 0 44 3 40 7 -10 10 -77 10 -83 1z"/>
<path d="M1632 5056 c7 -8 15 -12 17 -11 5 6 -10 25 -20 25 -5 0 -4 -6 3 -14z"/>
<path d="M2640 5050 c0 -5 5 -10 10 -10 6 0 10 5 10 10 0 6 -4 10 -10 10 -5 0
-10 -4 -10 -10z"/>
<path d="M3410 5030 c0 -5 5 -10 10 -10 6 0 10 5 10 10 0 6 -4 10 -10 10 -5 0
-10 -4 -10 -10z"/>
<path d="M2660 5020 c0 -5 5 -10 10 -10 6 0 10 5 10 10 0 6 -4 10 -10 10 -5 0
-10 -4 -10 -10z"/>
<path d="M830 4990 c0 -5 5 -10 11 -10 5 0 7 5 4 10 -3 6 -8 10 -11 10 -2 0
-4 -4 -4 -10z"/>
<path d="M2680 4991 c0 -6 5 -13 10 -16 6 -3 10 1 10 9 0 9 -4 16 -10 16 -5 0
-10 -4 -10 -9z"/>
<path d="M1524 4968 c-16 -13 -35 -29 -43 -36 -7 -7 -26 -16 -42 -19 -16 -3
-29 -9 -29 -14 0 -5 -13 -9 -30 -9 -16 0 -30 -4 -30 -10 0 -5 -13 -10 -30 -10
-16 0 -30 -4 -30 -9 0 -5 -10 -11 -22 -13 -17 -2 -24 -11 -26 -30 -2 -16 -8
-28 -13 -28 -5 0 -9 -13 -9 -30 0 -16 -4 -30 -10 -30 -5 0 -10 -11 -10 -25 0
-14 -4 -25 -10 -25 -5 0 -10 -7 -10 -15 0 -9 -11 -27 -25 -41 -14 -14 -25 -29
-25 -34 0 -17 -86 -100 -103 -100 -9 0 -17 -4 -17 -8 0 -18 -53 -32 -116 -32
-43 0 -63 -4 -59 -11 4 -6 35 -9 75 -7 66 2 69 1 99 -31 32 -34 47 -37 35 -7
-3 9 -12 16 -20 16 -8 0 -14 9 -14 20 0 11 7 20 15 20 8 0 15 5 15 10 0 6 11
0 25 -14 14 -14 25 -32 25 -41 0 -8 5 -15 10 -15 6 0 10 -5 10 -11 0 -18 88
-147 125 -184 19 -19 41 -35 49 -35 8 0 16 -6 19 -12 3 -10 10 -10 33 2 38 20
63 48 70 79 3 14 9 34 15 43 5 10 9 36 9 58 0 22 5 40 10 40 6 0 10 40 10 100
0 60 -4 100 -10 100 -6 0 -10 -36 -10 -89 0 -51 -4 -91 -10 -93 -6 -2 -11 -29
-13 -60 -1 -32 -5 -58 -9 -58 -5 0 -8 -7 -8 -15 0 -19 -20 -19 -68 1 -39 15
-82 54 -82 74 0 6 -4 10 -10 10 -5 0 -10 15 -10 34 0 19 -5 36 -12 38 -17 6
-18 260 0 265 6 3 12 13 12 24 0 10 5 19 10 19 6 0 10 9 10 20 0 11 5 20 10
20 6 0 10 8 10 18 0 11 9 27 20 37 11 10 20 13 20 7 0 -7 -4 -12 -10 -12 -12
0 -12 -187 0 -227 6 -21 9 -6 9 59 1 52 7 101 15 120 8 18 17 45 21 61 3 15
12 27 20 27 8 0 15 5 15 10 0 6 11 10 24 10 21 0 24 -5 30 -61 3 -34 6 -82 6
-105 0 -24 5 -44 10 -44 6 0 10 -18 10 -40 0 -22 5 -40 10 -40 6 0 10 30 10
69 0 39 5 73 10 76 6 3 10 23 10 44 0 20 4 41 8 47 5 5 14 34 21 65 6 31 20
62 31 72 21 17 27 37 11 37 -4 0 -21 -10 -37 -22z"/>
<path d="M3423 4975 c-7 -8 -13 -21 -13 -30 0 -8 -4 -15 -10 -15 -5 0 -10 -9
-10 -20 0 -13 -7 -20 -18 -20 -10 0 -24 -9 -32 -20 -8 -12 -26 -20 -42 -20
-15 0 -28 -4 -28 -10 0 -5 14 -10 30 -10 17 0 30 5 30 10 0 6 7 10 15 10 26 0
105 86 105 115 0 28 -9 31 -27 10z"/>
<path d="M2910 4961 c0 -5 7 -12 16 -15 24 -9 27 -7 10 9 -17 17 -26 19 -26 6z"/>
<path d="M2707 4953 c-4 -6 -2 -15 4 -18 6 -4 14 -17 19 -29 l9 -21 0 23 c1
12 -3 22 -8 22 -5 0 -11 8 -13 18 -2 12 -6 13 -11 5z"/>
<path d="M872 4930 c0 -14 2 -19 5 -12 2 6 2 18 0 25 -3 6 -5 1 -5 -13z"/>
<path d="M1641 4920 c0 -29 1 -32 10 -17 7 11 7 23 0 35 -9 14 -10 11 -10 -18z"/>
<path d="M3662 4933 c3 -20 58 -32 58 -14 0 6 -9 11 -20 11 -11 0 -20 5 -20
10 0 6 -5 10 -11 10 -6 0 -9 -8 -7 -17z"/>
<path d="M90 4900 c0 -6 32 -10 75 -10 43 0 75 4 75 10 0 6 -32 10 -75 10 -43
0 -75 -4 -75 -10z"/>
<path d="M721 4884 c-12 -14 -21 -28 -18 -31 6 -5 57 41 57 52 0 11 -16 3 -39
-21z"/>
<path d="M890 4900 c0 -5 5 -10 10 -10 6 0 10 5 10 10 0 6 -4 10 -10 10 -5 0
-10 -4 -10 -10z"/>
<path d="M2990 4907 c0 -1 9 -10 20 -20 19 -16 20 -16 20 3 0 13 -7 20 -20 20
-11 0 -20 -1 -20 -3z"/>
<path d="M3560 4900 c0 -5 -13 -10 -30 -10 -23 0 -30 -4 -30 -20 0 -11 5 -20
10 -20 6 0 10 5 10 10 0 6 9 10 20 10 11 0 20 5 20 10 0 6 9 10 20 10 11 0 20
5 20 10 0 6 -9 10 -20 10 -11 0 -20 -4 -20 -10z"/>
<path d="M50 4880 c0 -5 5 -10 10 -10 6 0 10 5 10 10 0 6 -4 10 -10 10 -5 0
-10 -4 -10 -10z"/>
<path d="M280 4880 c0 -5 9 -10 20 -10 11 0 20 5 20 10 0 6 -9 10 -20 10 -11
0 -20 -4 -20 -10z"/>
<path d="M1042 4870 c0 -14 2 -19 5 -12 2 6 2 18 0 25 -3 6 -5 1 -5 -13z"/>
<path d="M2752 4870 c0 -14 2 -19 5 -12 2 6 2 18 0 25 -3 6 -5 1 -5 -13z"/>
<path d="M340 4860 c0 -5 7 -10 16 -10 8 0 12 5 9 10 -3 6 -10 10 -16 10 -5 0
-9 -4 -9 -10z"/>
<path d="M1622 4840 c0 -19 2 -27 5 -17 2 9 2 25 0 35 -3 9 -5 1 -5 -18z"/>
<path d="M3790 4866 c0 -12 51 -58 57 -52 4 3 4 7 2 9 -2 1 -16 13 -31 26 -16
14 -28 21 -28 17z"/>
<path d="M30 4840 c0 -5 5 -10 10 -10 6 0 10 5 10 10 0 6 -4 10 -10 10 -5 0
-10 -4 -10 -10z"/>
<path d="M385 4840 c-3 -5 1 -10 10 -10 9 0 13 5 10 10 -3 6 -8 10 -10 10 -2
0 -7 -4 -10 -10z"/>
<path d="M2772 4830 c0 -14 2 -19 5 -12 2 6 2 18 0 25 -3 6 -5 1 -5 -13z"/>
<path d="M3205 4840 c-3 -5 -1 -10 4 -10 6 0 11 5 11 10 0 6 -2 10 -4 10 -3 0
-8 -4 -11 -10z"/>
<path d="M680 4815 c1 -26 2 -28 11 -12 8 14 8 22 0 30 -8 8 -11 3 -11 -18z"/>
<path d="M793 4815 c-17 -19 -16 -25 3 -25 15 0 44 23 44 34 0 12 -35 5 -47
-9z"/>
<path d="M2791 4784 c0 -11 3 -14 6 -6 3 7 2 16 -1 19 -3 4 -6 -2 -5 -13z"/>
<path d="M1602 4765 c0 -16 2 -22 5 -12 2 9 2 23 0 30 -3 6 -5 -1 -5 -18z"/>
<path d="M700 4765 c0 -9 9 -15 21 -15 18 0 19 2 5 15 -8 8 -17 15 -20 15 -3
0 -6 -7 -6 -15z"/>
<path d="M748 4773 c6 -2 18 -2 25 0 6 3 1 5 -13 5 -14 0 -19 -2 -12 -5z"/>
<path d="M173 4763 c-22 -8 -14 -34 19 -65 24 -23 29 -31 18 -38 -11 -7 -10
-11 4 -25 9 -10 20 -14 24 -10 4 4 1 10 -5 12 -20 7 -15 23 7 23 11 0 20 -4
20 -10 0 -5 9 -10 20 -10 11 0 20 -4 20 -10 0 -5 9 -10 20 -10 11 0 20 -4 20
-9 0 -5 15 -11 33 -14 140 -23 177 -32 177 -44 0 -9 14 -13 43 -12 37 0 40 2
20 11 -13 6 -23 14 -23 18 0 4 -13 13 -30 20 -16 7 -30 16 -30 21 0 5 -9 9
-20 9 -11 0 -20 5 -20 10 0 6 -9 10 -20 10 -11 0 -20 5 -20 10 0 6 -9 10 -20
10 -11 0 -20 5 -20 10 0 6 -7 10 -15 10 -8 0 -15 5 -15 10 0 6 -9 10 -20 10
-11 0 -20 4 -20 8 0 4 -21 14 -47 21 -27 8 -50 17 -53 21 -7 10 -53 19 -67 13z
m87 -53 c0 -5 14 -10 30 -10 17 0 30 -4 30 -10 0 -5 9 -10 20 -10 11 0 20 -4
20 -10 0 -5 9 -10 20 -10 11 0 20 -4 20 -10 0 -5 9 -10 20 -10 11 0 20 -4 20
-10 0 -5 -11 -10 -25 -10 -14 0 -25 5 -25 10 0 6 -16 10 -35 10 -19 0 -35 5
-35 10 0 6 -9 10 -20 10 -11 0 -20 4 -20 9 0 5 -13 14 -30 21 -34 14 -40 30
-10 30 11 0 20 -4 20 -10z"/>
<path d="M2812 4740 c0 -14 2 -19 5 -12 2 6 2 18 0 25 -3 6 -5 1 -5 -13z"/>
<path d="M3120 4750 c0 -5 5 -10 10 -10 6 0 10 -27 10 -60 0 -78 17 -78 22 0
2 43 -1 60 -9 60 -7 0 -13 5 -13 10 0 6 -4 10 -10 10 -5 0 -10 -4 -10 -10z"/>
<path d="M3403 4745 c-7 -8 -13 -30 -13 -50 0 -19 -4 -35 -10 -35 -6 0 -10
-63 -10 -170 0 -107 4 -170 10 -170 6 0 10 63 10 170 0 107 4 170 10 170 6 0
10 11 10 24 0 14 5 28 10 31 12 7 14 45 3 45 -5 -1 -14 -7 -20 -15z"/>
<path d="M2061 4743 c-20 -4 -151 -122 -151 -137 0 -3 -33 -37 -72 -76 -268
-257 -328 -318 -328 -329 0 -17 -26 -41 -44 -41 -9 0 -16 -7 -16 -16 0 -9 -10
-25 -22 -35 -11 -11 -18 -22 -13 -27 4 -4 10 -1 12 6 10 27 23 9 23 -33 0 -25
-4 -45 -10 -45 -5 0 -10 -9 -10 -20 0 -14 -7 -20 -21 -20 -11 0 -29 -5 -40
-10 -24 -13 -54 5 -75 45 -22 43 -18 53 24 58 l37 4 -35 1 c-26 2 -48 14 -84
47 -28 24 -52 42 -54 40 -3 -3 5 -13 16 -24 31 -26 27 -45 -12 -64 -19 -9 -45
-24 -57 -34 -35 -29 -179 -172 -179 -178 0 -7 -128 -135 -136 -135 -3 0 -19
-13 -34 -30 -15 -16 -33 -30 -39 -30 -14 0 -46 -26 -101 -81 -70 -71 -70 -72
-70 -153 0 -65 2 -75 19 -81 11 -3 23 -15 26 -26 6 -19 45 -27 45 -9 0 18 19
10 25 -11 10 -30 103 -119 125 -119 11 0 22 -4 25 -10 3 -5 40 -10 81 -10 43
0 74 4 74 10 0 6 9 10 20 10 11 0 20 5 20 10 0 6 9 10 20 10 11 0 20 -4 20
-10 0 -5 6 -10 14 -10 8 0 16 -5 18 -12 3 -7 25 -12 55 -12 51 0 73 12 86 47
7 18 37 24 37 7 0 -5 6 -10 14 -10 7 0 35 -43 62 -96 51 -103 84 -147 91 -126
3 7 22 12 44 12 21 0 39 5 39 10 0 6 18 10 41 10 41 0 69 17 69 43 0 17 -21
27 -55 27 -13 0 -27 5 -30 10 -3 6 -26 10 -50 10 -56 0 -75 8 -75 30 0 22 79
50 139 50 22 0 43 5 46 10 3 6 37 10 74 10 74 0 121 16 121 42 0 9 -20 31 -45
48 -25 17 -45 37 -45 44 0 26 58 34 107 15 78 -31 123 -53 123 -61 0 -4 6 -8
13 -8 7 0 23 -9 35 -20 12 -11 28 -20 37 -20 8 0 15 -4 15 -10 0 -5 6 -10 13
-10 7 0 19 -9 27 -20 8 -11 20 -20 27 -20 7 0 30 -15 50 -34 101 -92 133 -118
133 -107 0 6 -4 11 -10 11 -5 0 -10 7 -10 15 0 13 -44 52 -125 110 -47 34 -52
42 -65 107 l-13 63 -65 30 c-36 16 -76 40 -88 52 -13 13 -29 23 -36 23 -8 0
-20 9 -28 20 -8 11 -18 20 -23 20 -16 0 -97 93 -97 112 0 10 -4 18 -10 18 -5
0 -10 11 -10 25 0 14 -4 25 -10 25 -5 0 -10 16 -10 35 0 19 -4 35 -10 35 -5 0
-10 23 -10 50 0 28 -4 50 -10 50 -6 0 -10 35 -10 85 0 50 4 85 10 85 6 0 10
11 10 25 0 14 5 25 10 25 6 0 10 9 10 20 0 11 5 20 10 20 6 0 10 7 10 15 0 9
11 27 25 41 14 14 25 29 25 33 0 4 8 17 18 28 9 11 35 42 57 69 61 72 112 124
124 124 6 0 11 5 11 10 0 6 57 10 150 10 93 0 150 -4 150 -10 0 -5 22 -10 49
-10 35 0 51 -4 55 -16 7 -18 -15 -44 -38 -44 -9 0 -16 -4 -16 -10 0 -5 -4 -10
-9 -10 -10 0 -116 -62 -146 -85 -10 -8 -22 -15 -25 -15 -3 0 -14 -14 -24 -30
-30 -52 -4 -113 65 -151 35 -19 91 -39 113 -39 11 0 41 -22 66 -49 57 -61 133
-100 161 -83 10 7 23 12 29 12 16 0 60 47 60 65 0 8 5 15 10 15 6 0 10 14 10
30 0 17 5 30 10 30 6 0 10 14 10 30 0 17 5 30 10 30 6 0 10 5 10 11 0 6 6 17
14 25 8 8 19 14 25 14 6 0 11 5 11 10 0 6 5 10 11 10 35 0 59 62 52 134 -4 35
-1 67 7 87 7 17 13 57 13 89 0 49 -4 62 -26 84 -14 14 -35 26 -46 26 -11 0
-23 5 -26 10 -3 6 -26 10 -51 10 -24 0 -44 5 -44 10 0 6 -22 10 -50 10 -27 0
-50 5 -50 10 0 6 -16 10 -35 10 -19 0 -35 5 -35 10 0 6 -18 10 -39 10 -22 0
-43 5 -46 10 -3 6 -30 10 -60 10 -49 0 -55 3 -67 28 -15 31 -54 40 -88 22 -17
-9 -25 -8 -39 4 -10 9 -19 15 -22 15 -2 -1 -15 -4 -28 -6z m-801 -977 c0 -19
2 -40 5 -48 7 -18 -15 -48 -22 -30 -2 6 -13 12 -24 12 -10 0 -19 5 -19 10 0 6
-20 10 -45 10 -25 0 -45 -4 -45 -10 0 -5 -6 -10 -13 -10 -7 0 -19 -10 -27 -21
-8 -12 -21 -27 -27 -35 -7 -7 -13 -17 -13 -23 0 -6 -4 -11 -10 -11 -5 0 -10
-9 -10 -20 0 -11 -4 -20 -10 -20 -5 0 -10 -9 -10 -20 0 -13 -7 -20 -20 -20
-11 0 -20 -4 -20 -10 0 -5 -13 -10 -30 -10 -36 0 -41 27 -10 50 11 8 20 18 20
22 0 12 148 158 160 158 5 0 10 5 10 10 0 6 7 10 15 10 8 0 15 3 15 8 0 14 45
30 88 31 41 1 42 1 42 -33z"/>
<path d="M580 4733 c8 -3 22 -9 31 -14 11 -6 21 -4 29 6 11 13 6 15 -31 14
-24 0 -37 -3 -29 -6z"/>
<path d="M1582 4700 c0 -14 2 -19 5 -12 2 6 2 18 0 25 -3 6 -5 1 -5 -13z"/>
<path d="M140 4689 c0 -5 5 -7 10 -4 6 3 10 8 10 11 0 2 -4 4 -10 4 -5 0 -10
-5 -10 -11z"/>
<path d="M2830 4679 c0 -11 5 -17 10 -14 6 3 10 13 10 21 0 8 -4 14 -10 14 -5
0 -10 -9 -10 -21z"/>
<path d="M1556 4644 c-3 -9 -2 -23 4 -32 7 -14 9 -10 10 16 0 35 -5 41 -14 16z"/>
<path d="M2850 4636 c0 -22 3 -27 11 -19 8 8 8 16 0 30 -9 16 -10 14 -11 -11z"/>
<path d="M260 4610 c0 -5 5 -10 10 -10 6 0 10 5 10 10 0 6 -4 10 -10 10 -5 0
-10 -4 -10 -10z"/>
<path d="M4040 4610 c0 -5 5 -10 10 -10 6 0 10 5 10 10 0 6 -4 10 -10 10 -5 0
-10 -4 -10 -10z"/>
<path d="M300 4590 c0 -5 9 -10 20 -10 11 0 20 5 20 10 0 6 -9 10 -20 10 -11
0 -20 -4 -20 -10z"/>
<path d="M3520 4590 c0 -5 5 -10 11 -10 5 0 7 5 4 10 -3 6 -8 10 -11 10 -2 0
-4 -4 -4 -10z"/>
<path d="M3560 4587 c0 -9 10 -12 31 -9 22 3 27 7 18 13 -21 13 -49 11 -49 -4z"/>
<path d="M2870 4560 c0 -16 5 -30 10 -30 6 0 10 14 10 30 0 17 -4 30 -10 30
-5 0 -10 -13 -10 -30z"/>
<path d="M355 4570 c-3 -5 3 -10 14 -10 12 0 21 5 21 10 0 6 -6 10 -14 10 -8
0 -18 -4 -21 -10z"/>
<path d="M1536 4563 c-4 -9 -2 -21 4 -27 7 -7 10 -2 10 17 0 31 -5 34 -14 10z"/>
<path d="M430 4549 c0 -5 23 -9 50 -9 28 0 50 4 50 9 0 5 -22 9 -50 9 -27 0
-50 -4 -50 -9z"/>
<path d="M2963 4515 c0 -27 2 -38 4 -22 2 15 2 37 0 50 -2 12 -4 0 -4 -28z"/>
<path d="M1311 4534 c0 -11 3 -14 6 -6 3 7 2 16 -1 19 -3 4 -6 -2 -5 -13z"/>
<path d="M1514 4496 c-3 -8 -1 -23 5 -33 9 -15 10 -13 11 15 0 34 -7 42 -16
18z"/>
<path d="M2890 4460 c0 -27 5 -50 10 -50 6 0 10 23 10 50 0 28 -4 50 -10 50
-5 0 -10 -22 -10 -50z"/>
<path d="M768 4463 c6 -2 18 -2 25 0 6 3 1 5 -13 5 -14 0 -19 -2 -12 -5z"/>
<path d="M4290 4444 c0 -10 31 -36 37 -31 3 3 -2 13 -10 22 -16 15 -27 19 -27
9z"/>
<path d="M1490 4386 c0 -25 5 -48 10 -51 6 -4 10 13 10 44 0 28 -4 51 -10 51
-5 0 -10 -20 -10 -44z"/>
<path d="M3810 4425 c0 -11 51 -57 57 -52 3 3 -6 17 -20 31 -25 25 -37 32 -37
21z"/>
<path d="M1062 4350 c0 -14 2 -19 5 -12 2 6 2 18 0 25 -3 6 -5 1 -5 -13z"/>
<path d="M3542 4330 c0 -14 2 -19 5 -12 2 6 2 18 0 25 -3 6 -5 1 -5 -13z"/>
<path d="M1101 4284 c0 -11 3 -14 6 -6 3 7 2 16 -1 19 -3 4 -6 -2 -5 -13z"/>
<path d="M6125 4287 c-4 -9 -4 -21 -1 -26 4 -6 -3 -15 -14 -21 -18 -10 -19 -9
-10 15 12 31 4 32 -21 3 -23 -29 -25 -91 -2 -109 13 -11 17 -11 20 -1 3 6 10
12 17 12 7 0 23 23 36 50 l24 51 -22 21 c-19 19 -22 20 -27 5z"/>
<path d="M1470 4246 c0 -19 5 -38 10 -41 6 -4 10 10 10 34 0 23 -4 41 -10 41
-5 0 -10 -15 -10 -34z"/>
<path d="M4461 4264 c0 -11 3 -14 6 -6 3 7 2 16 -1 19 -3 4 -6 -2 -5 -13z"/>
<path d="M6241 4263 c-12 -13 -11 -14 9 -8 17 5 21 4 16 -6 -3 -8 -9 -22 -12
-31 -9 -24 -24 -23 -24 2 0 11 -4 20 -10 20 -16 0 -12 -90 5 -106 13 -13 18
-12 39 9 23 23 31 58 27 115 -1 26 -29 29 -50 5z"/>
<path d="M3396 4247 c-5 -9 -5 -29 0 -45 7 -25 8 -26 11 -4 3 12 3 32 0 45 -3
19 -4 20 -11 4z"/>
<path d="M3560 4239 c0 -11 4 -18 10 -14 5 3 7 12 3 20 -7 21 -13 19 -13 -6z"/>
<path d="M4060 4231 c0 -5 9 -13 20 -16 11 -3 27 -13 35 -22 9 -8 19 -13 22
-10 8 9 -23 37 -41 37 -9 0 -16 5 -16 10 0 6 -4 10 -10 10 -5 0 -10 -4 -10 -9z"/>
<path d="M4482 4220 c0 -14 2 -19 5 -12 2 6 2 18 0 25 -3 6 -5 1 -5 -13z"/>
<path d="M2890 4105 c0 -43 4 -75 10 -75 6 0 10 32 10 75 0 43 -4 75 -10 75
-6 0 -10 -32 -10 -75z"/>
<path d="M3580 4160 c0 -11 5 -20 10 -20 6 0 10 9 10 20 0 11 -4 20 -10 20 -5
0 -10 -9 -10 -20z"/>
<path d="M4502 4160 c0 -14 2 -19 5 -12 2 6 2 18 0 25 -3 6 -5 1 -5 -13z"/>
<path d="M4170 4154 c0 -3 7 -12 15 -20 13 -14 15 -13 15 5 0 12 -6 21 -15 21
-8 0 -15 -3 -15 -6z"/>
<path d="M3422 4120 c0 -14 2 -19 5 -12 2 6 2 18 0 25 -3 6 -5 1 -5 -13z"/>
<path d="M3600 4100 c0 -11 5 -20 10 -20 6 0 10 9 10 20 0 11 -4 20 -10 20 -5
0 -10 -9 -10 -20z"/>
<path d="M4192 4070 c0 -19 2 -27 5 -17 2 9 2 25 0 35 -3 9 -5 1 -5 -18z"/>
<path d="M5440 4084 c-25 -7 -65 -14 -90 -15 -40 0 -42 -2 -22 -11 27 -14 28
-20 2 -38 -21 -15 -28 -50 -10 -50 6 0 10 5 10 10 0 6 10 10 21 10 20 0 21 -4
16 -67 -3 -38 -11 -88 -17 -113 -6 -25 -14 -60 -17 -78 -3 -18 -9 -35 -14 -38
-5 -3 -9 -25 -9 -49 0 -24 -4 -47 -10 -50 -6 -4 -10 -85 -10 -211 0 -129 4
-204 10 -204 6 0 10 -18 10 -39 0 -22 4 -42 9 -45 4 -3 11 -20 15 -38 l6 -33
15 28 c17 32 76 108 122 154 20 20 42 33 58 33 26 0 34 15 13 23 -9 4 -10 8
-3 14 6 4 19 26 30 47 22 44 97 126 114 126 6 0 11 5 11 10 0 6 11 10 25 10
14 0 25 5 25 10 0 6 38 10 95 10 57 0 95 -4 95 -10 0 -5 7 -10 15 -10 9 0 23
-6 31 -12 47 -38 74 -66 74 -77 0 -6 4 -11 9 -11 4 0 16 -21 26 -46 17 -44 17
-110 2 -254 -3 -19 -2 -24 0 -11 3 13 10 30 17 37 19 19 40 222 27 256 -10 26
-9 28 29 38 92 25 178 -34 201 -136 10 -45 10 -71 0 -132 -17 -105 -39 -189
-62 -236 -10 -22 -19 -46 -19 -53 0 -7 -4 -13 -10 -13 -5 0 -10 -8 -10 -18 0
-10 -9 -24 -20 -32 -11 -8 -20 -20 -20 -27 0 -27 -130 -153 -157 -153 -7 0
-13 -4 -13 -10 0 -5 -9 -10 -20 -10 -11 0 -20 -4 -20 -10 0 -15 89 -12 135 5
22 8 54 14 72 15 25 0 31 4 27 15 -4 8 -1 15 5 15 6 0 11 7 11 15 0 8 5 15 10
15 6 0 10 6 10 13 0 7 9 23 20 35 11 12 20 28 20 37 0 8 4 15 8 15 14 0 82
148 82 179 0 37 -4 38 -33 11 -13 -12 -23 -16 -25 -10 -5 15 18 70 29 70 5 0
9 8 9 18 0 10 9 24 20 32 11 8 20 22 20 32 0 10 5 18 10 18 6 0 10 7 10 15 0
8 5 15 10 15 6 0 10 9 10 20 0 11 5 20 10 20 6 0 10 6 10 13 0 7 9 23 20 35
11 12 20 28 20 36 0 8 4 16 8 18 11 4 82 139 82 155 0 7 5 13 10 13 6 0 10 9
10 20 0 11 5 20 10 20 6 0 10 9 10 20 0 11 5 20 10 20 6 0 10 14 10 30 0 17 5
30 10 30 6 0 10 11 10 25 0 14 5 25 10 25 6 0 10 14 10 30 0 17 5 30 10 30 6
0 10 14 10 30 0 17 5 30 10 30 6 0 10 8 10 18 0 9 7 48 16 85 19 78 33 73 34
-13 l0 -55 46 48 c30 31 53 47 70 47 13 0 24 3 24 6 0 14 -31 34 -54 34 -14 0
-28 5 -31 10 -3 6 -19 10 -36 10 -16 0 -29 5 -29 10 0 16 -47 11 -54 -6 -3 -9
-6 -29 -6 -45 0 -16 -4 -29 -10 -29 -5 0 -10 -9 -10 -20 0 -11 -4 -20 -10 -20
-5 0 -10 -7 -10 -15 0 -8 -4 -15 -10 -15 -5 0 -10 -5 -10 -11 0 -17 -27 -39
-48 -39 -13 0 -24 11 -32 33 -7 17 -17 43 -23 56 l-12 23 -12 -30 c-7 -16 -24
-39 -38 -50 -14 -11 -25 -30 -25 -44 0 -13 -9 -30 -20 -38 -11 -8 -20 -20 -20
-27 0 -13 -30 -50 -84 -104 -22 -22 -38 -29 -60 -27 -43 4 -64 47 -65 131 -1
37 -5 67 -11 67 -5 0 -10 7 -10 16 0 9 -10 25 -22 35 l-21 19 41 0 c23 0 42 5
42 10 0 6 10 10 21 10 27 0 69 47 69 77 0 25 -20 73 -30 73 -3 0 -15 8 -26 18
-34 29 -60 40 -122 52 -80 14 -144 -1 -189 -46 -32 -32 -43 -64 -23 -64 6 0
10 -7 10 -15 0 -30 82 -94 122 -96 13 0 17 -3 11 -6 -7 -2 -13 -11 -13 -18 0
-13 -53 -75 -65 -75 -8 0 -35 -26 -35 -35 0 -12 -95 -94 -123 -106 -23 -10
-31 -9 -47 6 -11 10 -20 26 -20 37 0 10 -4 18 -10 18 -13 0 -13 153 -1 166 6
5 -3 23 -24 47 -31 35 -36 37 -50 24 -8 -9 -15 -18 -15 -21 0 -4 -10 -22 -22
-41 -33 -51 -62 -47 -78 9 -12 45 -10 137 4 169 12 25 -22 22 -45 -4 -14 -16
-25 -20 -44 -15 -24 6 -36 36 -15 36 6 0 10 20 10 45 0 51 -5 53 -80 29z m750
-100 c0 -14 -6 -32 -14 -40 -16 -16 -96 -19 -96 -4 0 6 -13 10 -30 10 -25 0
-30 4 -30 24 0 31 9 34 98 35 71 1 72 1 72 -25z"/>
<path d="M1375 4070 c-18 -8 -17 -9 8 -9 16 -1 26 3 22 9 -3 6 -7 10 -8 9 -1
0 -11 -4 -22 -9z"/>
<path d="M3442 4035 c0 -16 2 -22 5 -12 2 9 2 23 0 30 -3 6 -5 -1 -5 -18z"/>
<path d="M3620 4035 c0 -8 5 -15 10 -15 6 0 10 7 10 15 0 8 -4 15 -10 15 -5 0
-10 -7 -10 -15z"/>
<path d="M4172 4010 c0 -14 2 -19 5 -12 2 6 2 18 0 25 -3 6 -5 1 -5 -13z"/>
<path d="M6688 4017 c23 -5 42 -14 42 -18 0 -5 10 -9 23 -9 26 0 77 -21 77
-32 0 -5 11 -8 25 -8 14 0 25 5 25 10 0 6 -9 10 -20 10 -11 0 -20 5 -20 10 0
6 -9 10 -19 10 -11 0 -23 5 -26 10 -3 6 -19 10 -36 10 -16 0 -29 5 -29 10 0 6
-19 9 -42 9 l-43 -1 43 -11z"/>
<path d="M3640 3980 c0 -5 5 -10 10 -10 6 0 10 5 10 10 0 6 -4 10 -10 10 -5 0
-10 -4 -10 -10z"/>
<path d="M4145 3971 c-3 -5 -1 -12 5 -16 5 -3 10 1 10 9 0 18 -6 21 -15 7z"/>
<path d="M4502 3955 c0 -16 2 -22 5 -12 2 9 2 23 0 30 -3 6 -5 -1 -5 -18z"/>
<path d="M4111 3914 c-18 -21 -6 -30 14 -11 8 9 15 18 15 21 0 11 -15 5 -29
-10z"/>
<path d="M4482 3890 c0 -14 2 -19 5 -12 2 6 2 18 0 25 -3 6 -5 1 -5 -13z"/>
<path d="M4461 3834 c0 -11 3 -14 6 -6 3 7 2 16 -1 19 -3 4 -6 -2 -5 -13z"/>
<path d="M7090 3812 c0 -38 2 -42 26 -42 l26 0 -23 38 c-12 20 -24 39 -26 41
-2 2 -3 -14 -3 -37z"/>
<path d="M5020 3815 c0 -8 -6 -15 -12 -15 -9 0 -8 -4 2 -10 23 -15 30 -12 30
15 0 14 -4 25 -10 25 -5 0 -10 -7 -10 -15z"/>
<path d="M4441 3774 c0 -11 3 -14 6 -6 3 7 2 16 -1 19 -3 4 -6 -2 -5 -13z"/>
<path d="M7030 3735 c0 -4 7 -20 16 -37 11 -22 14 -43 9 -74 l-6 -43 25 12
c24 11 26 17 26 82 -1 61 -2 67 -13 48 -13 -23 -13 -23 -27 -3 -14 19 -30 27
-30 15z"/>
<path d="M2306 3628 c3 -18 10 -46 15 -62 12 -39 12 -96 -1 -96 -5 0 -10 5
-10 10 0 6 -7 10 -16 10 -14 0 -16 -8 -10 -49 4 -29 2 -52 -3 -56 -13 -7 -3
-34 22 -60 34 -36 87 -156 87 -197 0 -10 5 -18 10 -18 6 0 10 -30 10 -70 0
-40 4 -70 10 -70 6 0 10 -13 10 -30 0 -16 -3 -30 -6 -30 -11 0 -34 29 -34 44
0 9 -4 16 -10 16 -5 0 -10 18 -10 40 0 22 -4 40 -9 40 -5 0 -11 21 -14 48 -9
76 -19 115 -34 130 -8 8 -17 11 -21 7 -4 -4 -1 -10 6 -12 7 -3 12 -22 12 -44
0 -21 5 -39 10 -39 14 0 13 -107 -1 -112 -16 -5 5 -45 43 -80 15 -14 28 -31
28 -37 0 -6 5 -11 10 -11 6 0 10 -7 10 -15 0 -8 5 -15 10 -15 6 0 10 -7 10
-15 0 -8 5 -15 10 -15 6 0 10 -9 10 -20 0 -11 5 -20 10 -20 6 0 10 -7 10 -15
0 -9 9 -25 20 -37 16 -18 20 -19 20 -6 0 9 5 18 12 20 18 6 22 159 8 308 -11
118 -10 147 4 229 9 52 15 96 12 98 -2 2 -17 -13 -32 -34 -16 -21 -32 -39 -36
-41 -5 -2 -8 -10 -8 -18 0 -9 -4 -12 -10 -9 -5 3 -10 22 -10 41 0 19 -4 34
-10 34 -5 0 -10 18 -10 40 0 22 -4 40 -10 40 -5 0 -10 14 -10 30 0 17 -4 30
-10 30 -5 0 -10 9 -10 20 0 11 -4 20 -10 20 -5 0 -10 6 -10 13 0 6 -10 31 -22
55 -28 51 -50 56 -42 10z"/>
<path d="M4370 3650 c0 -5 5 -10 10 -10 6 0 10 5 10 10 0 6 -4 10 -10 10 -5 0
-10 -4 -10 -10z"/>
<path d="M4355 3620 c3 -5 8 -10 11 -10 2 0 4 5 4 10 0 6 -5 10 -11 10 -5 0
-7 -4 -4 -10z"/>
<path d="M4420 3540 c0 -5 7 -10 15 -10 8 0 15 5 15 10 0 6 -7 10 -15 10 -8 0
-15 -4 -15 -10z"/>
<path d="M4402 3510 c0 -14 2 -19 5 -12 2 6 2 18 0 25 -3 6 -5 1 -5 -13z"/>
<path d="M4461 3504 c0 -11 3 -14 6 -6 3 7 2 16 -1 19 -3 4 -6 -2 -5 -13z"/>
<path d="M4370 3461 c-13 -33 -52 -76 -101 -113 -13 -10 -20 -18 -16 -18 27 0
117 80 117 104 0 8 5 16 11 18 6 2 10 13 7 23 -3 16 -6 13 -18 -14z"/>
<path d="M4482 3450 c0 -14 2 -19 5 -12 2 6 2 18 0 25 -3 6 -5 1 -5 -13z"/>
<path d="M2100 3440 c0 -5 5 -10 10 -10 6 0 10 5 10 10 0 6 -4 10 -10 10 -5 0
-10 -4 -10 -10z"/>
<path d="M2140 3440 c0 -5 9 -10 20 -10 11 0 20 5 20 10 0 6 -9 10 -20 10 -11
0 -20 -4 -20 -10z"/>
<path d="M2081 3414 c0 -11 3 -14 6 -6 3 7 2 16 -1 19 -3 4 -6 -2 -5 -13z"/>
<path d="M2200 3420 c0 -5 5 -10 10 -10 6 0 10 5 10 10 0 6 -4 10 -10 10 -5 0
-10 -4 -10 -10z"/>
<path d="M4502 3375 c0 -16 2 -22 5 -12 2 9 2 23 0 30 -3 6 -5 -1 -5 -18z"/>
<path d="M3988 3305 c-6 -14 -15 -25 -20 -25 -4 0 -8 -9 -8 -20 0 -11 -5 -20
-10 -20 -11 0 -80 -65 -80 -75 0 -14 31 -2 44 17 l16 22 0 -22 c0 -12 -4 -22
-10 -22 -5 0 -10 -7 -10 -15 0 -18 12 -19 28 -3 9 9 12 8 12 -6 0 -17 22 -46
36 -46 3 0 15 9 24 20 11 13 21 17 25 10 3 -5 10 -10 16 -10 14 0 11 28 -3 33
-7 3 -3 6 10 6 17 1 22 7 22 26 0 14 -4 25 -10 25 -5 0 -10 9 -10 20 0 11 -4
20 -10 20 -5 0 -10 5 -10 10 0 22 34 8 66 -27 19 -20 34 -41 34 -45 0 -4 16
-25 35 -45 19 -20 35 -41 35 -46 0 -4 9 -17 20 -29 11 -12 20 -28 20 -35 0 -7
5 -13 10 -13 6 0 10 -9 10 -20 0 -11 5 -20 10 -20 6 0 10 -9 10 -20 0 -11 5
-20 10 -20 6 0 10 -11 10 -25 0 -14 5 -25 10 -25 6 0 10 -11 10 -25 0 -14 5
-25 10 -25 6 0 10 -11 10 -25 0 -14 5 -25 10 -25 6 0 10 -11 10 -25 0 -14 4
-33 9 -43 5 -9 14 -33 19 -52 l10 -35 1 48 c1 26 -3 47 -9 47 -5 0 -10 14 -10
30 0 17 -4 30 -10 30 -5 0 -10 11 -10 25 0 14 -4 25 -10 25 -5 0 -10 14 -10
30 0 17 -4 30 -10 30 -5 0 -10 9 -10 20 0 11 -4 20 -10 20 -5 0 -10 9 -10 20
0 11 -4 20 -10 20 -5 0 -10 9 -10 20 0 11 -3 20 -7 20 -5 0 -13 11 -20 25 -11
25 -8 42 18 113 5 13 5 22 -1 22 -6 0 -10 -7 -10 -15 0 -8 -4 -15 -10 -15 -5
0 -10 -9 -10 -20 0 -36 -22 -24 -65 35 -17 22 -34 43 -39 46 -10 7 0 22 55 80
20 22 32 39 27 39 -11 0 -85 -75 -90 -92 -3 -8 -21 3 -46 30 -22 23 -45 42
-51 42 -6 0 -11 4 -11 9 0 22 -31 19 -42 -4z"/>
<path d="M4520 3273 c0 -28 3 -34 10 -23 13 20 13 47 0 55 -6 4 -10 -9 -10
-32z"/>
<path d="M5675 3155 c-37 -40 -64 -60 -69 -54 -6 5 -13 9 -16 9 -4 0 -18 -47
-31 -105 -13 -58 -27 -105 -31 -105 -5 0 -8 -18 -8 -40 0 -35 -3 -40 -22 -41
-13 0 -17 -3 -10 -6 6 -2 12 -10 12 -17 0 -6 9 -18 20 -26 40 -29 21 -130 -24
-130 -24 0 -19 -38 9 -65 18 -19 35 -25 70 -25 25 0 45 -4 45 -10 0 -6 47 -10
120 -10 73 0 120 4 120 10 0 6 -11 10 -25 10 -14 0 -25 5 -25 10 0 6 -9 10
-20 10 -11 0 -20 5 -20 10 0 6 -7 10 -16 10 -21 0 -70 53 -95 101 -35 70 -25
254 21 364 5 11 14 35 22 53 7 17 16 32 20 32 5 0 8 8 8 18 0 10 9 24 20 32
25 18 26 30 3 29 -10 0 -45 -29 -78 -64z"/>
<path d="M4290 3190 c0 -5 5 -10 11 -10 5 0 7 5 4 10 -3 6 -8 10 -11 10 -2 0
-4 -4 -4 -10z"/>
<path d="M4540 3060 c0 -73 4 -120 10 -120 6 0 10 47 10 120 0 73 -4 120 -10
120 -6 0 -10 -47 -10 -120z"/>
<path d="M3830 3150 c0 -5 5 -10 10 -10 6 0 10 -5 10 -10 0 -6 14 -25 31 -43
17 -17 38 -45 46 -62 15 -27 43 -62 43 -52 0 26 -63 134 -87 150 -7 4 -19 14
-27 22 -17 17 -26 19 -26 5z"/>
<path d="M6693 3025 c-24 -25 -31 -55 -13 -55 6 0 10 8 10 18 0 10 9 24 20 32
20 14 27 31 13 29 -5 0 -18 -11 -30 -24z"/>
<path d="M1910 3002 c0 -4 9 -14 20 -22 11 -8 20 -20 20 -27 0 -7 11 -26 24
-41 14 -15 33 -37 44 -49 11 -13 27 -23 36 -23 9 0 16 -4 16 -10 0 -5 7 -10
15 -10 8 0 15 -4 15 -10 0 -5 9 -10 20 -10 11 0 20 -4 20 -10 0 -5 14 -10 30
-10 17 0 30 -4 30 -10 0 -5 9 -10 20 -10 11 0 20 3 20 6 0 10 -28 34 -40 34
-12 0 -89 39 -100 50 -3 3 -23 18 -45 35 -22 16 -61 51 -87 77 -46 47 -58 56
-58 40z"/>
<path d="M6570 2990 c-8 -11 -22 -20 -31 -20 -10 0 -23 -13 -31 -30 -7 -16
-16 -30 -20 -30 -5 0 -8 -7 -8 -15 0 -8 -4 -15 -10 -15 -5 0 -10 -9 -10 -20 0
-11 -4 -20 -10 -20 -5 0 -10 -8 -10 -18 0 -10 -9 -24 -20 -32 -11 -8 -20 -22
-20 -32 0 -10 -3 -18 -7 -18 -5 0 -26 -27 -48 -60 -22 -33 -43 -60 -47 -60 -5
0 -8 -7 -8 -16 0 -10 6 -14 18 -11 96 26 113 33 118 50 3 10 21 34 41 53 19
20 32 38 29 41 -3 4 -14 -4 -25 -15 -23 -27 -31 -28 -31 -2 0 11 5 20 10 20 6
0 10 8 10 18 0 10 9 24 20 32 11 8 20 19 20 25 0 17 24 65 33 65 4 0 7 7 7 15
0 8 5 15 10 15 6 0 10 6 10 13 0 6 11 25 25 41 14 16 25 33 25 38 0 15 -26 8
-40 -12z"/>
<path d="M3982 2930 c0 -14 2 -19 5 -12 2 6 2 18 0 25 -3 6 -5 1 -5 -13z"/>
<path d="M1370 2925 c0 -8 4 -15 10 -15 5 0 7 7 4 15 -4 8 -8 15 -10 15 -2 0
-4 -7 -4 -15z"/>
<path d="M1490 2889 c0 -11 18 -38 40 -59 22 -21 40 -41 40 -44 0 -3 -11 -6
-24 -6 -24 0 -46 -32 -27 -38 17 -6 13 -22 -5 -22 -20 0 -44 -24 -44 -45 0 -9
12 -18 30 -21 17 -4 30 -10 30 -15 0 -5 27 -9 59 -9 33 0 63 -4 66 -10 3 -5
15 -10 26 -10 10 0 19 -3 19 -6 0 -12 -29 -34 -47 -35 -10 -1 -4 -6 15 -11 26
-9 32 -16 32 -39 0 -16 5 -29 10 -29 6 0 10 5 10 10 0 6 7 10 15 10 8 0 15 5
15 10 0 6 11 10 25 10 14 0 25 5 25 10 0 6 18 10 40 10 22 0 40 -4 40 -10 0
-5 7 -10 15 -10 8 0 15 -4 15 -10 0 -5 13 -10 29 -10 16 0 31 -5 33 -11 6 -19
287 -16 299 2 11 18 11 29 1 29 -5 0 -31 21 -59 48 -28 26 -63 57 -79 69 -16
12 -42 33 -59 47 -16 14 -36 26 -42 26 -7 0 -13 5 -13 10 0 6 -7 10 -15 10 -8
0 -15 5 -15 10 0 6 -9 10 -20 10 -11 0 -20 4 -20 9 0 14 -175 90 -247 107 -37
9 -76 21 -85 25 -10 5 -43 9 -73 9 -49 0 -55 -2 -55 -21z"/>
<path d="M4000 2888 c0 -16 5 -28 10 -28 13 0 13 20 0 40 -8 12 -10 9 -10 -12z"/>
<path d="M5270 2885 c0 -14 5 -25 10 -25 6 0 10 11 10 25 0 14 -4 25 -10 25
-5 0 -10 -11 -10 -25z"/>
<path d="M1403 2893 c9 -2 25 -2 35 0 9 3 1 5 -18 5 -19 0 -27 -2 -17 -5z"/>
<path d="M4520 2864 c0 -21 4 -33 10 -29 6 3 10 19 10 36 0 16 -4 29 -10 29
-5 0 -10 -16 -10 -36z"/>
<path d="M6190 2876 c0 -9 5 -16 10 -16 6 0 10 4 10 9 0 6 -4 13 -10 16 -5 3
-10 -1 -10 -9z"/>
<path d="M5290 2825 c0 -14 5 -25 10 -25 6 0 10 -13 10 -30 0 -16 5 -30 10
-30 6 0 10 -9 10 -20 0 -11 5 -20 10 -20 6 0 10 -9 10 -19 0 -11 4 -22 9 -25
5 -3 12 -22 15 -41 5 -24 12 -35 24 -35 9 0 30 -7 46 -15 45 -24 42 -10 -8 39
-25 25 -46 50 -46 56 0 5 -4 10 -10 10 -5 0 -10 9 -10 20 0 11 -4 20 -10 20
-5 0 -10 11 -10 25 0 14 -4 25 -10 25 -5 0 -10 9 -10 20 0 11 -4 20 -10 20 -5
0 -10 11 -10 25 0 14 -4 25 -10 25 -5 0 -10 -11 -10 -25z"/>
<path d="M4020 2694 c0 -89 4 -143 9 -135 11 16 9 266 -2 277 -4 4 -7 -60 -7
-142z"/>
<path d="M6183 2825 c-7 -8 -13 -21 -13 -30 0 -8 -9 -15 -20 -15 -14 0 -20 -7
-20 -24 0 -25 -93 -126 -116 -126 -8 0 -14 -4 -14 -10 0 -15 -58 -12 -63 3 -3
9 -7 9 -20 -2 -11 -9 -17 -10 -17 -2 0 6 -16 11 -35 11 -20 0 -35 -5 -35 -12
0 -6 -9 -3 -20 7 -14 13 -17 22 -10 29 15 15 12 26 -5 26 -20 0 -85 65 -85 85
0 8 -4 15 -10 15 -5 0 -10 -9 -10 -20 0 -11 5 -20 10 -20 6 0 10 -13 10 -30 0
-16 5 -30 10 -30 6 0 10 -9 10 -20 0 -11 5 -20 10 -20 6 0 10 5 10 10 0 6 5
10 10 10 15 0 12 -30 -2 -30 -19 -1 11 -17 67 -35 32 -11 63 -15 94 -11 50 7
141 44 141 58 0 10 46 58 55 58 12 0 35 28 35 42 0 8 9 20 20 28 11 8 20 22
20 32 0 10 5 18 10 18 6 0 10 5 10 10 0 14 -13 12 -27 -5z m-433 -135 c0 -5
-4 -10 -10 -10 -5 0 -10 5 -10 10 0 6 5 10 10 10 6 0 10 -4 10 -10z m120 -90
c0 -5 -4 -10 -10 -10 -5 0 -10 5 -10 10 0 6 5 10 10 10 6 0 10 -4 10 -10z"/>
<path d="M4500 2803 c0 -13 5 -23 10 -23 13 0 13 11 0 30 -8 12 -10 11 -10 -7z"/>
<path d="M6500 2770 c0 -5 5 -10 10 -10 6 0 10 5 10 10 0 6 -4 10 -10 10 -5 0
-10 -4 -10 -10z"/>
<path d="M3100 2705 c0 -30 5 -55 10 -55 6 0 10 25 10 55 0 30 -4 55 -10 55
-5 0 -10 -25 -10 -55z"/>
<path d="M4473 2744 c-17 -18 -16 -34 2 -34 7 0 18 -8 24 -17 9 -17 10 -17 17
1 4 10 2 21 -3 25 -5 3 -14 13 -19 22 -8 14 -11 15 -21 3z"/>
<path d="M2490 2713 c0 -5 5 -15 10 -23 8 -12 10 -11 10 8 0 12 -4 22 -10 22
-5 0 -10 -3 -10 -7z"/>
<path d="M1418 2663 c6 -2 18 -2 25 0 6 3 1 5 -13 5 -14 0 -19 -2 -12 -5z"/>
<path d="M4477 2657 c-4 -10 -20 -23 -37 -28 -28 -10 -30 -13 -24 -52 8 -52
14 -60 14 -19 0 37 9 62 22 62 15 0 40 29 36 42 -3 7 -7 5 -11 -5z"/>
<path d="M2517 2653 c-3 -5 -2 -44 3 -88 l7 -80 2 88 c1 82 -1 97 -12 80z"/>
<path d="M5810 2645 c0 -8 5 -15 10 -15 6 0 10 7 10 15 0 8 -4 15 -10 15 -5 0
-10 -7 -10 -15z"/>
<path d="M3080 2600 c0 -16 -4 -30 -10 -30 -5 0 -10 -13 -10 -30 0 -16 -4 -30
-10 -30 -5 0 -10 -10 -10 -22 1 -22 1 -22 12 -4 15 27 48 118 48 133 0 7 -4
13 -10 13 -5 0 -10 -13 -10 -30z"/>
<path d="M1550 2540 c0 -5 11 -10 25 -10 14 0 25 5 25 10 0 6 -11 10 -25 10
-14 0 -25 -4 -25 -10z"/>
<path d="M5980 2540 c0 -5 5 -10 10 -10 6 0 10 5 10 10 0 6 -4 10 -10 10 -5 0
-10 -4 -10 -10z"/>
<path d="M1510 2520 c0 -5 5 -10 10 -10 6 0 10 5 10 10 0 6 -4 10 -10 10 -5 0
-10 -4 -10 -10z"/>
<path d="M4002 2500 c0 -19 2 -27 5 -17 2 9 2 25 0 35 -3 9 -5 1 -5 -18z"/>
<path d="M1470 2490 c0 -11 5 -20 10 -20 6 0 10 9 10 20 0 11 -4 20 -10 20 -5
0 -10 -9 -10 -20z"/>
<path d="M2310 2484 c0 -7 27 -34 34 -34 13 0 5 16 -14 28 -11 7 -20 10 -20 6z"/>
<path d="M2497 2474 c-4 -12 -17 -26 -30 -32 -19 -9 -19 -11 -4 -11 25 -1 49
25 45 47 -4 15 -5 14 -11 -4z"/>
<path d="M4442 2460 c0 -19 2 -27 5 -17 2 9 2 25 0 35 -3 9 -5 1 -5 -18z"/>
<path d="M3982 2440 c0 -14 2 -19 5 -12 2 6 2 18 0 25 -3 6 -5 1 -5 -13z"/>
<path d="M1292 2430 c0 -14 2 -19 5 -12 2 6 2 18 0 25 -3 6 -5 1 -5 -13z"/>
<path d="M2370 2440 c0 -5 10 -10 23 -10 18 0 19 2 7 10 -19 13 -30 13 -30 0z"/>
<path d="M3022 2430 c0 -14 2 -19 5 -12 2 6 2 18 0 25 -3 6 -5 1 -5 -13z"/>
<path d="M1490 2405 c0 -8 5 -15 10 -15 6 0 10 7 10 15 0 8 -4 15 -10 15 -5 0
-10 -7 -10 -15z"/>
<path d="M3002 2385 c0 -16 2 -22 5 -12 2 9 2 23 0 30 -3 6 -5 -1 -5 -18z"/>
<path d="M3961 2384 c0 -11 3 -14 6 -6 3 7 2 16 -1 19 -3 4 -6 -2 -5 -13z"/>
<path d="M4462 2365 c0 -16 2 -22 5 -12 2 9 2 23 0 30 -3 6 -5 -1 -5 -18z"/>
<path d="M1312 2360 c0 -14 2 -19 5 -12 2 6 2 18 0 25 -3 6 -5 1 -5 -13z"/>
<path d="M1510 2350 c0 -5 5 -10 10 -10 6 0 10 5 10 10 0 6 -4 10 -10 10 -5 0
-10 -4 -10 -10z"/>
<path d="M2982 2340 c0 -14 2 -19 5 -12 2 6 2 18 0 25 -3 6 -5 1 -5 -13z"/>
<path d="M3623 2353 c15 -2 37 -2 50 0 12 2 0 4 -28 4 -27 0 -38 -2 -22 -4z"/>
<path d="M3828 2353 c12 -2 32 -2 45 0 12 2 2 4 -23 4 -25 0 -35 -2 -22 -4z"/>
<path d="M3937 2345 c-4 -8 -2 -17 3 -20 6 -4 10 3 10 14 0 25 -6 27 -13 6z"/>
<path d="M3470 2330 c0 -5 -13 -10 -30 -10 -16 0 -30 -4 -30 -10 0 -5 6 -10
14 -10 8 0 17 -6 19 -12 4 -10 6 -10 6 0 1 6 10 12 21 12 11 0 20 5 20 10 0 6
9 10 19 10 11 0 23 5 26 10 4 6 -8 10 -29 10 -20 0 -36 -4 -36 -10z"/>
<path d="M764 2313 c11 -12 94 -15 101 -4 4 7 -13 11 -51 11 -32 0 -54 -3 -50
-7z"/>
<path d="M1332 2300 c0 -14 2 -19 5 -12 2 6 2 18 0 25 -3 6 -5 1 -5 -13z"/>
<path d="M1530 2310 c0 -5 5 -10 10 -10 6 0 10 5 10 10 0 6 -4 10 -10 10 -5 0
-10 -4 -10 -10z"/>
<path d="M2935 2261 c-16 -33 -33 -61 -37 -61 -12 0 -9 -40 2 -40 6 0 10 9 10
20 0 11 5 20 10 20 6 0 10 9 10 20 0 11 5 20 10 20 6 0 10 9 10 19 0 11 5 21
11 23 6 2 10 12 8 22 -3 12 -14 -3 -34 -43z"/>
<path d="M3962 2300 c0 -14 2 -19 5 -12 2 6 2 18 0 25 -3 6 -5 1 -5 -13z"/>
<path d="M680 2290 c0 -5 9 -10 20 -10 11 0 20 5 20 10 0 6 -9 10 -20 10 -11
0 -20 -4 -20 -10z"/>
<path d="M930 2290 c0 -5 14 -10 30 -10 17 0 30 5 30 10 0 6 -13 10 -30 10
-16 0 -30 -4 -30 -10z"/>
<path d="M3350 2290 c0 -5 5 -10 10 -10 6 0 10 5 10 10 0 6 -4 10 -10 10 -5 0
-10 -4 -10 -10z"/>
<path d="M4482 2280 c0 -14 2 -19 5 -12 2 6 2 18 0 25 -3 6 -5 1 -5 -13z"/>
<path d="M660 2263 c0 -17 6 -23 23 -23 16 0 18 3 8 9 -7 5 -17 15 -22 22 -6
10 -9 8 -9 -8z"/>
<path d="M1010 2270 c0 -5 12 -10 26 -10 14 0 23 4 19 10 -3 6 -15 10 -26 10
-10 0 -19 -4 -19 -10z"/>
<path d="M1550 2270 c0 -5 5 -10 10 -10 6 0 10 5 10 10 0 6 -4 10 -10 10 -5 0
-10 -4 -10 -10z"/>
<path d="M3305 2270 c-3 -5 1 -10 9 -10 9 0 16 5 16 10 0 6 -4 10 -9 10 -6 0
-13 -4 -16 -10z"/>
<path d="M3410 2271 c0 -5 -8 -12 -19 -16 -26 -8 -66 -44 -58 -52 4 -3 15 4
26 15 10 12 24 22 30 22 13 0 41 24 41 34 0 3 -4 6 -10 6 -5 0 -10 -4 -10 -9z"/>
<path d="M1085 2250 c-3 -5 3 -10 15 -10 12 0 18 5 15 10 -3 6 -10 10 -15 10
-5 0 -12 -4 -15 -10z"/>
<path d="M1351 2244 c0 -11 3 -14 6 -6 3 7 2 16 -1 19 -3 4 -6 -2 -5 -13z"/>
<path d="M740 2230 c-21 -7 -17 -8 20 -9 32 0 41 2 30 9 -17 11 -16 11 -50 0z"/>
<path d="M1148 2223 c6 -2 18 -2 25 0 6 3 1 5 -13 5 -14 0 -19 -2 -12 -5z"/>
<path d="M4020 2220 c0 -12 29 -45 35 -39 2 2 -5 15 -16 28 -10 13 -19 18 -19
11z"/>
<path d="M820 2201 c0 -17 18 -21 24 -6 3 9 0 15 -9 15 -8 0 -15 -4 -15 -9z"/>
<path d="M1208 2203 c6 -2 18 -2 25 0 6 3 1 5 -13 5 -14 0 -19 -2 -12 -5z"/>
<path d="M1371 2194 c0 -11 3 -14 6 -6 3 7 2 16 -1 19 -3 4 -6 -2 -5 -13z"/>
<path d="M1601 2194 c0 -11 3 -14 6 -6 3 7 2 16 -1 19 -3 4 -6 -2 -5 -13z"/>
<path d="M4502 2190 c0 -14 2 -19 5 -12 2 6 2 18 0 25 -3 6 -5 1 -5 -13z"/>
<path d="M768 2163 c6 -2 18 -2 25 0 6 3 1 5 -13 5 -14 0 -19 -2 -12 -5z"/>
<path d="M1383 2155 c-10 -10 -9 -14 2 -19 17 -6 26 5 17 21 -5 8 -11 7 -19
-2z"/>
<path d="M4060 2155 c0 -8 5 -15 10 -15 6 0 10 7 10 15 0 8 -4 15 -10 15 -5 0
-10 -7 -10 -15z"/>
<path d="M688 2143 c6 -2 18 -2 25 0 6 3 1 5 -13 5 -14 0 -19 -2 -12 -5z"/>
<path d="M2870 2140 c0 -5 5 -10 10 -10 6 0 10 5 10 10 0 6 -4 10 -10 10 -5 0
-10 -4 -10 -10z"/>
<path d="M628 2123 c7 -3 16 -2 19 1 4 3 -2 6 -13 5 -11 0 -14 -3 -6 -6z"/>
<path d="M1640 2124 c0 -10 31 -36 37 -31 3 3 -2 13 -10 22 -16 15 -27 19 -27
9z"/>
<path d="M4080 2120 c0 -5 5 -10 10 -10 6 0 10 -9 10 -20 0 -11 4 -20 8 -20 5
0 14 -10 20 -22 l11 -23 0 23 c1 12 -3 22 -9 22 -5 0 -10 7 -10 16 0 15 -23
44 -34 44 -3 0 -6 -4 -6 -10z"/>
<path d="M4520 2110 c0 -11 2 -20 4 -20 2 0 6 9 9 20 3 11 1 20 -4 20 -5 0 -9
-9 -9 -20z"/>
<path d="M2850 2107 c0 -9 -4 -17 -10 -17 -5 0 -10 -9 -10 -19 0 -11 -5 -21
-11 -23 -7 -2 -10 -11 -7 -18 3 -10 11 -3 23 20 10 19 23 38 29 42 8 5 7 11
-2 20 -9 9 -12 9 -12 -5z"/>
<path d="M575 2100 c3 -5 8 -10 11 -10 2 0 4 5 4 10 0 6 -5 10 -11 10 -5 0 -7
-4 -4 -10z"/>
<path d="M511 2064 c-12 -14 -21 -28 -18 -31 6 -5 57 41 57 52 0 11 -16 3 -39
-21z"/>
<path d="M1680 2060 c0 -5 5 -10 10 -10 6 0 10 5 10 10 0 6 -4 10 -10 10 -5 0
-10 -4 -10 -10z"/>
<path d="M3191 2063 c0 -7 -17 -28 -36 -47 -19 -20 -35 -40 -35 -46 0 -5 -4
-10 -10 -10 -5 0 -10 -6 -10 -14 0 -8 -6 -16 -12 -19 -7 -2 -10 -8 -6 -12 8
-9 38 18 38 34 0 6 5 11 10 11 6 0 10 5 10 11 0 6 14 24 31 40 19 18 29 35 26
46 -3 10 -5 13 -6 6z"/>
<path d="M4540 2050 c0 -11 5 -20 10 -20 6 0 10 9 10 20 0 11 -4 20 -10 20 -5
0 -10 -9 -10 -20z"/>
<path d="M1700 2030 c0 -6 9 -20 20 -32 17 -19 20 -19 20 -5 0 9 -4 17 -10 17
-5 0 -10 7 -10 15 0 8 -4 15 -10 15 -5 0 -10 -5 -10 -10z"/>
<path d="M4145 2021 c-3 -5 -1 -12 5 -16 5 -3 10 1 10 9 0 18 -6 21 -15 7z"/>
<path d="M910 2001 c0 -6 5 -11 10 -11 6 0 10 -7 10 -15 0 -8 9 -15 20 -15 11
0 20 -4 20 -10 0 -5 14 -10 30 -10 17 0 30 -4 30 -10 0 -5 18 -10 39 -10 22 0
43 -4 46 -10 3 -5 42 -10 86 -10 46 0 79 4 79 10 0 6 28 10 65 10 36 0 65 4
65 9 0 4 -73 11 -162 14 -162 6 -288 28 -323 57 -11 9 -15 9 -15 1z"/>
<path d="M4560 1985 c0 -8 5 -15 10 -15 6 0 10 7 10 15 0 8 -4 15 -10 15 -5 0
-10 -7 -10 -15z"/>
<path d="M570 1980 c0 -5 -17 -10 -37 -11 -21 -1 -49 -5 -63 -9 -18 -6 -4 -8
48 -9 42 -1 72 3 72 9 0 6 18 10 40 10 22 0 40 -4 40 -10 0 -5 7 -10 15 -10
19 0 19 7 1 26 -17 16 -116 20 -116 4z"/>
<path d="M4171 1974 c0 -11 3 -14 6 -6 3 7 2 16 -1 19 -3 4 -6 -2 -5 -13z"/>
<path d="M2771 1964 c0 -11 3 -14 6 -6 3 7 2 16 -1 19 -3 4 -6 -2 -5 -13z"/>
<path d="M1740 1950 c0 -5 5 -10 10 -10 6 0 10 5 10 10 0 6 -4 10 -10 10 -5 0
-10 -4 -10 -10z"/>
<path d="M2751 1934 c0 -11 3 -14 6 -6 3 7 2 16 -1 19 -3 4 -6 -2 -5 -13z"/>
<path d="M4190 1930 c0 -11 4 -20 9 -20 5 0 7 9 4 20 -3 11 -7 20 -9 20 -2 0
-4 -9 -4 -20z"/>
<path d="M4586 1941 c-4 -7 -5 -15 -2 -18 9 -9 19 4 14 18 -4 11 -6 11 -12 0z"/>
<path d="M701 1924 c0 -11 3 -14 6 -6 3 7 2 16 -1 19 -3 4 -6 -2 -5 -13z"/>
<path d="M1760 1911 c0 -6 5 -13 10 -16 6 -3 10 1 10 9 0 9 -4 16 -10 16 -5 0
-10 -4 -10 -9z"/>
<path d="M2726 1905 c-3 -8 -1 -15 4 -15 6 0 10 7 10 15 0 8 -2 15 -4 15 -2 0
-6 -7 -10 -15z"/>
<path d="M4210 1882 c0 -12 5 -22 10 -22 6 0 10 -13 10 -30 0 -16 5 -30 10
-30 6 0 10 -18 10 -40 0 -22 5 -40 10 -40 16 0 12 33 -15 105 -27 76 -35 88
-35 57z"/>
<path d="M4606 1881 c-4 -7 -5 -15 -2 -18 9 -9 19 4 14 18 -4 11 -6 11 -12 0z"/>
<path d="M2693 1865 c-7 -8 -13 -20 -13 -27 0 -8 -9 -20 -20 -28 -11 -8 -20
-20 -20 -28 0 -7 -9 -22 -20 -34 -22 -24 -26 -38 -10 -38 6 0 10 6 10 13 0 7
9 19 20 27 11 8 20 21 20 30 0 9 9 22 20 30 11 8 20 22 20 32 0 10 5 18 10 18
6 0 10 5 10 10 0 14 -13 12 -27 -5z"/>
<path d="M3041 1854 c0 -11 3 -14 6 -6 3 7 2 16 -1 19 -3 4 -6 -2 -5 -13z"/>
<path d="M635 1850 c3 -5 8 -10 11 -10 2 0 4 5 4 10 0 6 -5 10 -11 10 -5 0 -7
-4 -4 -10z"/>
<path d="M1788 1845 c-22 -67 -22 -70 -4 -52 10 10 16 28 14 44 -3 24 -4 25
-10 8z"/>
<path d="M840 1810 c0 -6 28 -10 65 -10 37 0 65 4 65 10 0 6 -28 10 -65 10
-37 0 -65 -4 -65 -10z"/>
<path d="M1060 1810 c0 -6 37 -10 90 -10 53 0 90 4 90 10 0 6 -37 10 -90 10
-53 0 -90 -4 -90 -10z"/>
<path d="M3002 1800 c0 -14 2 -19 5 -12 2 6 2 18 0 25 -3 6 -5 1 -5 -13z"/>
<path d="M760 1790 c0 -5 9 -10 20 -10 11 0 20 5 20 10 0 6 -9 10 -20 10 -11
0 -20 -4 -20 -10z"/>
<path d="M1310 1790 c0 -5 23 -10 51 -10 31 0 48 4 44 10 -3 6 -26 10 -51 10
-24 0 -44 -4 -44 -10z"/>
<path d="M4634 1695 c0 -60 1 -84 3 -52 2 32 2 81 0 110 -2 29 -3 3 -3 -58z"/>
<path d="M562 1760 c0 -14 2 -19 5 -12 2 6 2 18 0 25 -3 6 -5 1 -5 -13z"/>
<path d="M695 1770 c-4 -6 5 -10 20 -10 15 0 24 4 20 10 -3 6 -12 10 -20 10
-8 0 -17 -4 -20 -10z"/>
<path d="M1460 1770 c-11 -7 3 -9 45 -9 45 1 54 3 35 9 -35 11 -63 11 -80 0z"/>
<path d="M1725 1770 c-3 -5 3 -10 14 -10 12 0 21 5 21 10 0 6 -6 10 -14 10 -8
0 -18 -4 -21 -10z"/>
<path d="M640 1750 c-12 -8 -9 -10 13 -10 15 0 27 5 27 10 0 13 -20 13 -40 0z"/>
<path d="M2955 1730 c-3 -5 -1 -10 4 -10 6 0 11 5 11 10 0 6 -2 10 -4 10 -3 0
-8 -4 -11 -10z"/>
<path d="M2935 1700 c3 -5 8 -10 11 -10 2 0 4 5 4 10 0 6 -5 10 -11 10 -5 0
-7 -4 -4 -10z"/>
<path d="M4270 1653 c0 -35 -4 -63 -10 -63 -5 0 -10 -9 -10 -20 0 -24 6 -25
26 -6 16 17 19 113 4 136 -7 11 -10 -3 -10 -47z"/>
<path d="M2580 1690 c0 -5 5 -10 11 -10 5 0 7 5 4 10 -3 6 -8 10 -11 10 -2 0
-4 -4 -4 -10z"/>
<path d="M2915 1671 c-3 -5 -1 -12 5 -16 5 -3 10 1 10 9 0 18 -6 21 -15 7z"/>
<path d="M2552 1654 c-7 -8 -12 -21 -10 -29 2 -10 9 -4 20 15 18 32 12 40 -10
14z"/>
<path d="M2890 1635 c0 -8 5 -15 10 -15 6 0 10 7 10 15 0 8 -4 15 -10 15 -5 0
-10 -7 -10 -15z"/>
<path d="M2870 1600 c0 -5 5 -10 10 -10 6 0 10 5 10 10 0 6 -4 10 -10 10 -5 0
-10 -4 -10 -10z"/>
<path d="M2490 1569 c-14 -20 -25 -33 -62 -78 -10 -12 -18 -26 -18 -31 0 -19
17 -10 31 17 8 15 26 41 42 57 15 16 27 35 27 42 0 19 -3 18 -20 -7z"/>
<path d="M2850 1560 c0 -5 5 -10 10 -10 6 0 10 5 10 10 0 6 -4 10 -10 10 -5 0
-10 -4 -10 -10z"/>
<path d="M4232 1530 c0 -14 2 -19 5 -12 2 6 2 18 0 25 -3 6 -5 1 -5 -13z"/>
<path d="M2831 1524 c0 -11 3 -14 6 -6 3 7 2 16 -1 19 -3 4 -6 -2 -5 -13z"/>
<path d="M4607 1510 c-3 -11 -1 -20 4 -20 5 0 9 9 9 20 0 11 -2 20 -4 20 -2 0
-6 -9 -9 -20z"/>
<path d="M2811 1494 c0 -11 3 -14 6 -6 3 7 2 16 -1 19 -3 4 -6 -2 -5 -13z"/>
<path d="M4211 1484 c0 -11 3 -14 6 -6 3 7 2 16 -1 19 -3 4 -6 -2 -5 -13z"/>
<path d="M2791 1454 c0 -11 3 -14 6 -6 3 7 2 16 -1 19 -3 4 -6 -2 -5 -13z"/>
<path d="M1688 1453 c6 -2 18 -2 25 0 6 3 1 5 -13 5 -14 0 -19 -2 -12 -5z"/>
<path d="M4580 1435 c0 -8 5 -15 10 -15 6 0 10 7 10 15 0 8 -4 15 -10 15 -5 0
-10 -7 -10 -15z"/>
<path d="M4165 1421 c-3 -5 -1 -12 5 -16 5 -3 10 1 10 9 0 18 -6 21 -15 7z"/>
<path d="M1770 1416 c0 -2 7 -6 15 -10 8 -3 15 -1 15 4 0 6 -7 10 -15 10 -8 0
-15 -2 -15 -4z"/>
<path d="M2370 1410 c0 -5 -7 -10 -16 -10 -20 0 -49 -29 -39 -38 4 -4 10 -1
12 6 3 6 10 12 17 12 7 0 21 9 31 20 10 11 13 20 7 20 -7 0 -12 -4 -12 -10z"/>
<path d="M1810 1390 c0 -5 7 -10 15 -10 8 0 15 5 15 10 0 6 -7 10 -15 10 -8 0
-15 -4 -15 -10z"/>
<path d="M4143 1394 c6 -6 -2 -17 -40 -59 -13 -13 -23 -29 -23 -35 0 -5 -4
-10 -10 -10 -5 0 -10 -6 -10 -14 0 -8 -6 -16 -12 -19 -7 -2 -10 -8 -6 -12 8
-9 38 18 38 34 0 6 5 11 10 11 6 0 10 5 10 11 0 7 8 19 18 28 16 16 42 55 42
66 0 3 -5 5 -12 5 -6 0 -9 -3 -5 -6z"/>
<path d="M4560 1380 c0 -11 5 -20 10 -20 6 0 10 9 10 20 0 11 -4 20 -10 20 -5
0 -10 -9 -10 -20z"/>
<path d="M2751 1374 c0 -11 3 -14 6 -6 3 7 2 16 -1 19 -3 4 -6 -2 -5 -13z"/>
<path d="M1850 1370 c0 -5 7 -10 15 -10 8 0 15 -4 15 -10 0 -5 7 -10 15 -10 8
0 15 -4 15 -10 0 -5 9 -10 19 -10 11 0 22 -6 24 -12 4 -10 8 -10 16 2 13 18 5
30 -20 30 -10 0 -19 5 -19 10 0 6 -11 10 -25 10 -14 0 -25 5 -25 10 0 6 -7 10
-15 10 -8 0 -15 -4 -15 -10z"/>
<path d="M2270 1350 c0 -5 7 -10 15 -10 8 0 15 5 15 10 0 6 -7 10 -15 10 -8 0
-15 -4 -15 -10z"/>
<path d="M2732 1340 c0 -14 2 -19 5 -12 2 6 2 18 0 25 -3 6 -5 1 -5 -13z"/>
<path d="M2220 1330 c0 -5 9 -10 20 -10 11 0 20 5 20 10 0 6 -9 10 -20 10 -11
0 -20 -4 -20 -10z"/>
<path d="M4540 1330 c0 -5 5 -10 10 -10 6 0 10 5 10 10 0 6 -4 10 -10 10 -5 0
-10 -4 -10 -10z"/>
<path d="M2013 1308 c-2 -5 39 -8 91 -8 53 0 96 3 96 8 0 9 -180 9 -187 0z"/>
<path d="M2700 1294 c-8 -16 -16 -32 -18 -36 -2 -5 1 -8 7 -8 6 0 11 6 11 14
0 8 5 16 11 18 6 2 10 12 8 23 -3 16 -6 14 -19 -11z"/>
<path d="M2660 1220 c0 -5 5 -10 10 -10 6 0 10 5 10 10 0 6 -4 10 -10 10 -5 0
-10 -4 -10 -10z"/>
<path d="M3987 1189 c-20 -23 -34 -45 -31 -51 3 -5 13 1 22 14 8 13 26 35 40
51 14 15 22 27 16 26 -5 0 -26 -18 -47 -40z"/>
<path d="M2640 1180 c0 -5 5 -10 10 -10 6 0 10 5 10 10 0 6 -4 10 -10 10 -5 0
-10 -4 -10 -10z"/>
<path d="M4442 1150 c0 -14 2 -19 5 -12 2 6 2 18 0 25 -3 6 -5 1 -5 -13z"/>
<path d="M3892 1084 c-24 -25 -42 -48 -39 -51 6 -5 97 82 97 92 0 13 -18 0
-58 -41z"/>
<path d="M3762 944 c-30 -31 -52 -58 -49 -61 5 -5 117 102 117 112 0 13 -19
-1 -68 -51z"/>
<path d="M4355 980 c-3 -5 -1 -10 4 -10 6 0 11 5 11 10 0 6 -2 10 -4 10 -3 0
-8 -4 -11 -10z"/>
<path d="M4738 953 c6 -2 18 -2 25 0 6 3 1 5 -13 5 -14 0 -19 -2 -12 -5z"/>
<path d="M4330 930 c0 -5 5 -10 10 -10 6 0 10 5 10 10 0 6 -4 10 -10 10 -5 0
-10 -4 -10 -10z"/>
<path d="M4667 929 c8 -8 16 -8 30 0 16 9 14 10 -11 11 -22 0 -27 -3 -19 -11z"/>
<path d="M4610 910 c0 -5 6 -10 14 -10 8 0 18 5 21 10 3 6 -3 10 -14 10 -12 0
-21 -4 -21 -10z"/>
<path d="M4551 884 c-7 -8 -10 -18 -6 -22 4 -4 10 -1 12 6 3 6 13 12 24 12 10
0 19 5 19 10 0 15 -33 11 -49 -6z"/>
<path d="M3645 830 c-16 -17 -25 -30 -21 -30 10 0 59 50 54 56 -3 2 -17 -10
-33 -26z"/>
<path d="M4310 850 c0 -5 5 -10 10 -10 6 0 10 5 10 10 0 6 -4 10 -10 10 -5 0
-10 -4 -10 -10z"/>
<path d="M4449 834 c-5 -15 -7 -29 -4 -32 3 -3 5 -1 5 4 0 6 16 16 35 24 43
17 45 30 5 30 -24 0 -33 -6 -41 -26z"/>
<path d="M4363 823 c9 -2 25 -2 35 0 9 3 1 5 -18 5 -19 0 -27 -2 -17 -5z"/>
<path d="M3600 790 c0 -5 5 -10 11 -10 5 0 7 5 4 10 -3 6 -8 10 -11 10 -2 0
-4 -4 -4 -10z"/>
<path d="M4193 473 c9 -2 23 -2 30 0 6 3 -1 5 -18 5 -16 0 -22 -2 -12 -5z"/>
</g>
</svg>
